<svg width="175" height="62" viewBox="0 0 175 62" fill="none" xmlns="http://www.w3.org/2000/svg">
<path d="M90.1215 23.4078C90.1215 24.3705 89.2802 25.2049 88.3094 25.2049C87.2739 25.2049 86.4973 24.4347 86.4973 23.4078C86.4973 22.3808 87.2739 21.6106 88.3094 21.6106C89.3449 21.6748 90.1215 22.445 90.1215 23.4078ZM82.6142 27.0661C82.6142 27.2587 82.6142 27.5154 82.6142 27.5154C82.6142 27.5154 81.7729 26.4243 79.896 26.4243C76.8543 26.4243 74.4597 28.7349 74.4597 31.8798C74.4597 35.0247 76.7896 37.3353 79.896 37.3353C81.7729 37.3353 82.6142 36.18 82.6142 36.18V36.6293C82.6142 36.8218 82.8084 37.0144 83.0025 37.0144H85.2677V26.681C85.2677 26.681 83.1967 26.681 83.0025 26.681C82.7436 26.681 82.6142 26.8736 82.6142 27.0661ZM82.6142 33.6769C82.1612 34.2545 81.3198 34.8322 80.3491 34.8322C78.537 34.8322 77.1779 33.7411 77.1779 31.8798C77.1779 30.0185 78.537 28.9274 80.3491 28.9274C81.3198 28.9274 82.2259 29.5051 82.6142 30.0827V33.6769ZM86.9503 26.681H89.6685V37.0786H86.9503V26.681ZM127.27 26.3601C125.393 26.3601 124.552 27.4512 124.552 27.4512V21.6106H121.833V37.0144C121.833 37.0144 123.904 37.0144 124.099 37.0144C124.293 37.0144 124.487 36.8218 124.487 36.6293V36.18C124.487 36.18 125.328 37.3353 127.205 37.3353C130.247 37.3353 132.641 35.0247 132.641 31.8798C132.641 28.7349 130.311 26.3601 127.27 26.3601ZM126.817 34.8322C125.781 34.8322 124.94 34.3187 124.552 33.6769V29.9543C125.005 29.3767 125.846 28.7991 126.817 28.7991C128.629 28.7991 129.988 29.8902 129.988 31.7514C129.988 33.6127 128.629 34.8322 126.817 34.8322ZM120.41 30.9171V37.0786H117.691V31.1738C117.691 29.4409 117.109 28.7991 115.62 28.7991C114.779 28.7991 113.938 29.1841 113.42 29.826V37.0786H110.702V26.681H112.838C113.032 26.681 113.226 26.8736 113.226 27.0661V27.5154C114.003 26.7452 115.038 26.4243 116.073 26.4243C117.238 26.4243 118.209 26.7452 119.051 27.387C120.086 28.1572 120.41 29.12 120.41 30.9171ZM104.23 26.3601C102.353 26.3601 101.512 27.4512 101.512 27.4512V21.6106H98.7937V37.0144C98.7937 37.0144 100.865 37.0144 101.059 37.0144C101.253 37.0144 101.447 36.8218 101.447 36.6293V36.18C101.447 36.18 102.289 37.3353 104.165 37.3353C107.207 37.3353 109.602 35.0247 109.602 31.8798C109.666 28.7349 107.272 26.3601 104.23 26.3601ZM103.777 34.8322C102.742 34.8322 101.9 34.3187 101.512 33.6769V29.9543C101.965 29.3767 102.806 28.7991 103.777 28.7991C105.589 28.7991 106.948 29.8902 106.948 31.7514C106.948 33.6127 105.589 34.8322 103.777 34.8322ZM96.4639 26.3601C97.3052 26.3601 97.6935 26.4885 97.6935 26.4885V28.9274C97.6935 28.9274 95.4284 28.1572 94.0693 29.7618V37.0144H91.3512V26.681C91.3512 26.681 93.4221 26.681 93.6163 26.681C93.8104 26.681 94.0046 26.8736 94.0046 27.0661V27.5154C94.5223 26.9378 95.6226 26.3601 96.4639 26.3601ZM68.4409 36.1158C68.3115 35.7949 68.1821 35.4098 67.9879 35.1531C67.7937 34.6396 67.5349 34.1904 67.3407 33.7411C65.3992 29.5692 63.3282 25.3974 61.1278 21.2256L61.0631 21.033C60.8689 20.6479 60.61 20.1986 60.4159 19.7494C60.157 19.2359 59.8334 18.7225 59.3804 18.209C58.4743 17.1179 57.18 16.4761 55.8209 16.4761C54.3971 16.4761 53.1674 17.0537 52.1967 18.1448C51.7436 18.6583 51.4848 19.1717 51.1612 19.6852C50.967 20.1345 50.7082 20.5837 50.514 20.9688L50.4493 21.1614C48.2489 25.269 46.1779 29.5051 44.2363 33.6127V33.6769C44.0422 34.1262 43.7833 34.5755 43.5892 35.0889C43.4597 35.4098 43.3303 35.7307 43.1361 36.0516C42.7478 37.0786 42.6831 38.0413 42.8125 39.004C43.1361 41.0579 44.4952 42.7908 46.4368 43.561C47.1487 43.8819 47.9253 44.0102 48.7019 44.0102C48.896 44.0102 49.2196 44.0102 49.4138 43.9461C50.3198 43.8177 51.2906 43.561 52.1967 42.9833C53.3616 42.3415 54.4618 41.4429 55.6914 40.0951C56.9211 41.4429 58.0213 42.3415 59.1862 42.9833C60.0923 43.4968 61.0631 43.8177 61.9691 43.9461C62.1633 43.9461 62.4869 44.0102 62.681 44.0102C63.4576 44.0102 64.2342 43.8819 64.9461 43.561C66.8877 42.7908 68.3115 40.9937 68.5704 39.004C68.894 38.1055 68.8292 37.1427 68.4409 36.1158ZM55.7562 37.5278C54.2676 35.6665 53.2322 33.8694 52.9086 32.3933C52.7791 31.7514 52.7144 31.1738 52.8438 30.7245C52.9086 30.2752 53.038 29.8902 53.2969 29.5692C53.8146 28.7991 54.7207 28.3498 55.7562 28.3498C56.7917 28.3498 57.6977 28.7991 58.2155 29.5692C58.4096 29.8902 58.6038 30.2752 58.6685 30.7245C58.7332 31.238 58.7332 31.8156 58.6038 32.3933C58.2802 33.8694 57.3094 35.6665 55.7562 37.5278ZM66.9524 38.8757C66.7583 40.2877 65.7875 41.5713 64.3637 42.0848C63.7165 42.3415 62.9399 42.4699 62.228 42.3415C61.5161 42.2773 60.8042 42.0206 60.0923 41.6355C59.0568 41.0579 58.086 40.2235 56.8564 38.9398C58.7332 36.6935 59.8334 34.6396 60.2864 32.8425C60.4806 32.0082 60.4806 31.238 60.4159 30.4678C60.2864 29.7618 60.0276 29.12 59.6393 28.6065C58.7979 27.387 57.3094 26.6169 55.6914 26.6169C54.0735 26.6169 52.585 27.387 51.7436 28.6065C51.3553 29.1841 51.0965 29.826 50.967 30.4678C50.8376 31.1738 50.9023 32.0082 51.0965 32.8425C51.5495 34.6396 52.6497 36.7576 54.5265 39.004C53.3616 40.2877 52.3261 41.122 51.2906 41.6997C50.5787 42.0848 49.8668 42.3415 49.1549 42.4057C48.3783 42.4699 47.6664 42.4057 47.0192 42.149C45.6601 41.5713 44.6894 40.3518 44.4305 38.9398C44.3658 38.2338 44.4305 37.5278 44.6894 36.7576C44.8835 36.4367 45.013 36.18 45.1424 35.8591C45.3365 35.4098 45.5954 34.9605 45.7896 34.4471V34.3829C47.7311 30.2752 49.8021 26.0392 52.0025 21.9957L52.0672 21.8032C52.2614 21.4181 52.5203 20.9688 52.7144 20.5196C53.038 20.1345 53.2969 19.6852 53.5557 19.3643C54.1382 18.7225 54.9148 18.3374 55.8209 18.3374C56.6622 18.3374 57.5036 18.7225 58.086 19.3643C58.4096 19.7494 58.6685 20.1345 58.8626 20.5837C59.0568 20.9688 59.3157 21.4181 59.5098 21.8674L59.5745 22.0599C61.7102 26.1676 63.7812 30.4036 65.7228 34.5113C65.9169 34.9605 66.1758 35.474 66.3699 35.9233C66.4994 36.2442 66.6288 36.5009 66.7583 36.8218C67.0171 37.4637 67.0818 38.1055 66.9524 38.8757Z" fill="#FF5A5F"/>
</svg>
