<svg width="175" height="62" viewBox="0 0 175 62" fill="none" xmlns="http://www.w3.org/2000/svg">
<g clip-path="url(#clip0)">
<path d="M45.4711 30.5532C45.3954 29.8914 45.3497 29.2255 45.3342 28.5582C45.3204 26.406 45.6981 24.274 46.4434 22.2974C47.1887 20.3208 48.2853 18.5427 49.6638 17.0758V15.1621L49.5926 15.2372C47.8593 16.8624 46.4647 18.9086 45.5104 21.227C44.556 23.5453 44.0658 26.0775 44.0753 28.6395C44.0739 29.4794 44.1454 30.3174 44.2888 31.1411C44.67 30.92 45.0652 30.7319 45.4711 30.5783" fill="#B6358D"/>
<path d="M48.7549 41.4858C46.3963 43.6211 43.4826 44.7983 40.4735 44.8317C39.0996 44.8298 37.7339 44.5894 36.4231 44.1188L35 45.0756H35.0712C36.786 45.8744 38.6216 46.2803 40.4735 46.2702C43.8489 46.303 47.1215 44.944 49.6909 42.4427C49.4068 42.1012 49.1033 41.7816 48.7823 41.4858" fill="#00B294"/>
<path d="M58.8096 44.0376C55.9997 43.9919 53.2707 42.9557 50.9958 41.0706C48.7208 39.1854 47.011 36.5434 46.1002 33.5059C45.8922 34.2251 45.613 34.7567 45.4707 35.3445C46.5709 38.3484 48.4247 40.9129 50.7985 42.7147C53.1722 44.5166 55.9598 45.4752 58.8096 45.4698C60.673 45.469 62.5193 45.0637 64.2503 44.2753H64.3214L62.9147 43.3997C61.5716 43.8075 60.1884 44.0177 58.7987 44.0251" fill="#B6358D"/>
<path d="M53.9926 28.4024C53.9902 30.5287 53.6045 32.6317 52.8597 34.5803C52.1148 36.5289 51.0267 38.2813 49.6631 39.7284C49.9541 40.0662 50.2814 40.3605 50.6374 40.6039C52.0524 39.0617 53.1875 37.2159 53.9779 35.1721C54.7683 33.1284 55.1984 30.9266 55.2436 28.6928C55.2889 26.459 54.9484 24.2369 54.2416 22.1535C53.5348 20.0702 52.4756 18.1664 51.1245 16.551C50.6886 16.0259 50.2223 15.5349 49.7288 15.0813L49.6631 15V16.8324C51.0255 18.3319 52.1106 20.1286 52.8543 22.1159C53.598 24.1033 53.9851 26.241 53.9926 28.4024Z" fill="#00B294"/>
<path d="M62.3676 25.4502C63.9714 26.8886 64.557 27.8455 64.557 29.2776C64.5478 29.7992 64.426 30.31 64.2026 30.765C63.9792 31.2199 63.661 31.6048 63.2762 31.8856C62.6396 32.3062 61.9152 32.5223 61.1799 32.511C60.5349 32.526 59.8941 32.3898 59.297 32.1107C59.1778 32.0528 59.0788 31.9515 59.0155 31.8225C58.9521 31.6935 58.9279 31.5441 58.9467 31.3978C58.9467 30.6785 59.0178 30.1157 59.0178 29.7967V29.6404C59.0178 29.1588 59.2258 29.0838 59.297 29.0838C59.3702 29.0869 59.4396 29.1215 59.4914 29.1806C59.5431 29.2398 59.5734 29.3191 59.5761 29.4027C59.598 29.6171 59.6439 29.8273 59.713 30.0281C59.818 30.4436 60.0391 30.8084 60.3425 31.0669C60.6458 31.3255 61.0149 31.4636 61.3933 31.4603C61.7613 31.4872 62.1244 31.3516 62.4075 31.0817C62.6906 30.8117 62.8723 30.4279 62.915 30.0094V29.9406C62.915 29.384 62.7781 28.746 61.7272 27.7892L61.0978 27.3076C59.702 26.1131 59.2149 25.0749 59.2149 23.7991C59.2149 22.123 60.4738 20.8472 62.3567 20.8472C62.9439 20.8639 63.5285 20.9435 64.1027 21.0849C64.3107 21.1662 64.3819 21.3288 64.3819 21.4038C64.3819 21.6477 64.3819 21.7228 64.3107 22.9236C64.3107 23.1612 64.3107 23.4802 64.0316 23.4802C63.7524 23.4802 63.8236 23.2425 63.8236 23.1612C63.763 22.9358 63.6685 22.7242 63.5444 22.5358C63.3935 22.2994 63.1933 22.1098 62.962 21.9842C62.7307 21.8586 62.4756 21.801 62.2198 21.8166C61.8613 21.782 61.5054 21.9114 61.2304 22.1764C60.9553 22.4414 60.7836 22.8204 60.7529 23.23V23.23C60.7529 23.8554 61.0321 24.3432 62.0775 25.1437L62.3676 25.4502ZM104.678 25.4502L104.327 25.2125C103.277 24.3307 102.997 23.8554 102.997 23.2988C103.017 22.8961 103.176 22.5188 103.438 22.2493C103.701 21.9797 104.046 21.8399 104.399 21.8604C104.654 21.8448 104.909 21.9024 105.141 22.028C105.372 22.1536 105.572 22.3432 105.723 22.5796C105.888 22.7738 105.987 23.0288 106.002 23.2988C106.002 23.4552 106.073 23.6178 106.21 23.6178C106.347 23.6178 106.489 23.2175 106.489 23.0549C106.561 21.8604 106.561 21.8041 106.561 21.5414C106.561 21.2788 106.489 21.3038 106.281 21.2225C105.707 21.0379 105.11 20.9577 104.514 20.9848C102.696 20.9848 101.372 22.1793 101.372 23.9367C101.372 25.1875 102.001 26.3257 103.255 27.4452L103.884 28.0018C104.935 28.9587 105.072 29.6779 105.072 30.1532C105.034 30.6038 104.847 31.0208 104.549 31.3186C104.251 31.6163 103.864 31.7723 103.468 31.7542C103.09 31.7558 102.722 31.6162 102.419 31.3565C102.117 31.0968 101.897 30.7314 101.793 30.3158C101.722 30.0782 101.722 29.9969 101.651 29.6904C101.645 29.6082 101.613 29.5311 101.562 29.4727C101.511 29.4144 101.444 29.3785 101.372 29.3714C101.235 29.3714 101.164 29.4528 101.093 29.9281V30.0907C101.093 30.3283 101.021 30.9662 101.021 31.6854C101.021 32.0857 101.093 32.242 101.372 32.4046C101.972 32.6717 102.611 32.8055 103.255 32.7986C103.991 32.8229 104.719 32.6059 105.351 32.1732C105.729 31.881 106.041 31.4895 106.26 31.0314C106.479 30.5734 106.599 30.0621 106.61 29.5403C106.84 27.8455 106.21 26.8073 104.678 25.4502ZM75.7722 29.5153C75.5642 29.5153 75.5642 29.7592 75.4931 29.8342L75.4219 29.9969C75.3345 30.2538 75.2166 30.4958 75.0716 30.7161C74.5845 31.3415 74.0262 31.5103 72.8384 31.5103C71.7568 31.4064 70.7527 30.8267 70.0379 29.8933C69.3231 28.9599 68.9535 27.7459 69.007 26.5071C69.007 24.831 69.3573 23.7116 70.1017 22.9173C70.4119 22.5927 70.7751 22.3411 71.1705 22.1769C71.5659 22.0127 71.9857 21.9392 72.406 21.9604C73.2968 21.9115 74.1703 22.2539 74.8472 22.9173C75.0663 23.2245 75.2317 23.5769 75.3343 23.9555C75.3343 24.1118 75.4055 24.3495 75.619 24.3495C75.8324 24.3495 75.8981 24.1118 75.8981 23.8742V21.6227C75.8981 21.4601 75.8269 21.3788 75.619 21.3038L75.4219 21.2537C75.1231 21.1554 74.8198 21.0761 74.5133 21.0161C73.8901 20.9089 73.2607 20.8545 72.6304 20.8535C70.8132 20.8535 69.4886 21.335 68.5144 22.4483C68.0254 22.9684 67.6362 23.5988 67.3715 24.2996C67.1067 25.0004 66.9722 25.7563 66.9763 26.5196C66.9522 27.3512 67.0826 28.1791 67.3591 28.9488C67.6355 29.7185 68.0517 30.4125 68.58 30.985C69.8294 32.1742 71.4288 32.7737 73.0519 32.6611C73.8513 32.6867 74.6496 32.5792 75.4219 32.3421C75.5958 32.2249 75.7408 32.0592 75.8434 31.8605C75.9658 31.2528 76.0354 30.6327 76.0514 30.0094C76.066 29.9651 76.0726 29.9179 76.0708 29.8706C76.069 29.8233 76.0589 29.777 76.041 29.7343C76.0231 29.6916 75.9978 29.6536 75.9666 29.6224C75.9355 29.5912 75.8992 29.5675 75.8598 29.5528L75.7722 29.5153ZM85.2687 30.3158C85.1264 30.3158 85.0553 30.3971 85.0553 30.6348C84.9896 31.035 84.8473 31.2602 84.5681 31.354C84.1809 31.4713 83.7808 31.524 83.3804 31.5103C82.0558 31.5103 81.7055 31.2727 81.7055 30.4722V27.1263C82.3814 27.1064 83.0577 27.1335 83.7307 27.2076C84.2178 27.2826 84.4313 27.3639 84.497 27.5265C84.5626 27.6891 84.7104 27.8455 84.7761 27.8455C84.8418 27.8455 84.9896 27.7642 84.9896 27.3639V25.8504C84.9854 25.7792 84.963 25.7109 84.925 25.6541C84.887 25.5974 84.8352 25.5547 84.7761 25.5315C84.7517 25.528 84.7268 25.5301 84.7031 25.5377C84.6793 25.5452 84.6571 25.5581 84.6378 25.5756C84.6184 25.593 84.6023 25.6147 84.5903 25.6394C84.5784 25.664 84.5708 25.6911 84.5681 25.7191V25.7691C84.5681 25.8504 84.497 25.8504 84.497 25.9255C84.497 26.0005 84.2178 26.0881 83.9496 26.0881H81.6343V22.417H84.0098C84.6393 22.4983 84.6393 22.6609 84.7104 22.8172C84.7589 22.914 84.7817 23.0249 84.7761 23.1362C84.7816 23.207 84.8046 23.2746 84.8424 23.331C84.8802 23.3875 84.9312 23.4305 84.9896 23.4552C85.0553 23.4552 85.1976 23.4552 85.1976 23.2175V21.6227C85.1976 21.3788 85.0553 21.3038 84.9896 21.3038H79.0508C78.7717 21.3038 78.6349 21.2225 78.6349 21.4601C78.6349 21.6978 78.7717 21.6978 78.9852 21.7791C79.1986 21.8604 79.1932 21.8604 79.2643 21.8604C79.6146 22.0167 79.6803 22.098 79.6803 22.4858V28.0706C79.6803 29.0838 79.6803 30.0907 79.6146 31.1038C79.5876 31.3558 79.5149 31.5987 79.4011 31.8168C79.3355 31.9794 79.2643 31.9794 79.1931 31.9794C79.122 31.9794 78.8428 32.0607 78.8428 32.217C78.8428 32.3734 78.914 32.536 79.2643 32.536H84.5681C85.0553 32.536 85.2687 32.536 85.4056 31.9794C85.5088 31.5707 85.5784 31.152 85.6136 30.7286C85.5479 30.4722 85.4767 30.3158 85.2687 30.3158V30.3158ZM98.115 21.2537H95.9256C95.7176 21.2537 95.5096 21.2537 95.5096 21.5727C95.5096 21.8916 95.7176 21.8103 95.8545 21.8916C95.9913 21.973 96.0679 21.8916 96.1336 21.973C96.3471 22.1293 96.4839 22.2919 96.4839 23.1675L96.6262 29.3089L94.2507 26.5947L89.9212 21.654L89.7844 21.4914C89.5709 21.2537 89.5052 21.1724 89.2918 21.1724C89.0783 21.1724 89.0126 21.654 89.0126 21.8916L88.9688 30.4722C88.9688 31.6729 88.8977 32.0732 88.6897 32.1482C88.4762 32.0732 88.4762 32.0732 88.4105 32.0732C88.3376 32.0651 88.2644 32.0839 88.2014 32.1266C88.1384 32.1693 88.0889 32.2338 88.0602 32.3108C88.0602 32.6298 88.3394 32.6298 88.4762 32.6298H90.7149C90.994 32.6298 91.202 32.4672 91.202 32.3108C91.202 32.1545 91.1308 32.0732 90.8517 32.0732C90.7766 32.0718 90.7038 32.0434 90.6437 31.9919C90.4357 31.8293 90.3646 31.3665 90.3646 30.5535L90.1566 24.9248C90.7039 25.6378 96.369 31.9418 96.785 32.4985C96.849 32.5956 96.9316 32.6749 97.0264 32.7301C97.1213 32.7854 97.2259 32.8153 97.3323 32.8174C97.5458 32.8174 97.7538 32.5798 97.7538 32.192L97.8249 23.0236C97.8249 22.1418 97.8906 21.9855 98.1041 21.9042C98.3175 21.8229 98.2409 21.9042 98.3121 21.8229C98.3832 21.7416 98.6624 21.7416 98.6624 21.5039C98.6624 21.2662 98.323 21.2537 98.115 21.2537ZM138.449 21.2537H136.26C136.052 21.2537 135.844 21.2537 135.844 21.5727C135.844 21.8916 136.052 21.8103 136.194 21.8916C136.336 21.973 136.402 21.8916 136.473 21.973C136.681 22.1293 136.824 22.2919 136.824 23.1675L136.96 29.3089L134.656 26.676C132.773 24.4433 130.277 21.729 130.19 21.5727L130.047 21.4101C129.839 21.1724 129.768 21.0911 129.56 21.0911C129.352 21.0911 129.281 21.5727 129.281 21.8103L129.21 30.4284C129.21 31.6229 129.139 32.0232 128.931 32.1045C128.723 32.1858 128.723 32.1795 128.652 32.1795C128.578 32.1729 128.505 32.193 128.442 32.2367C128.379 32.2805 128.33 32.3458 128.301 32.4234C128.301 32.7424 128.581 32.7424 128.723 32.7424H130.956C131.235 32.7424 131.443 32.5798 131.443 32.4234C131.443 32.2671 131.377 32.1795 131.098 32.1795C131.022 32.1805 130.947 32.1542 130.885 32.1045C130.677 31.9419 130.606 31.4791 130.606 30.666L130.469 24.9999C131.016 25.7191 136.681 32.0232 137.103 32.5798C137.166 32.6776 137.249 32.7574 137.344 32.8127C137.439 32.8681 137.543 32.8975 137.65 32.8987C137.858 32.8987 138.066 32.6611 138.066 32.2733L138.137 23.0987C138.137 22.2231 138.208 22.0605 138.416 21.9855C138.624 21.9104 138.553 21.9855 138.624 21.9042C138.696 21.8229 138.975 21.8229 138.975 21.5852C138.975 21.3475 138.674 21.2537 138.449 21.2537ZM113.271 31.9919H112.926C112.647 31.9106 112.576 31.7542 112.576 31.4353C112.505 30.395 112.482 29.3513 112.505 28.3083V22.7359C112.505 22.2606 112.647 22.1105 112.855 22.0167H113.134C113.175 22.0228 113.217 22.0196 113.257 22.0071C113.297 21.9947 113.334 21.9733 113.367 21.9442C113.399 21.9151 113.427 21.8788 113.447 21.8376C113.467 21.7964 113.48 21.751 113.485 21.704C113.485 21.4664 113.342 21.4664 113.063 21.4664H109.987C109.845 21.4664 109.5 21.4664 109.5 21.704C109.5 21.9417 109.566 22.023 109.845 22.023C109.966 22.0115 110.087 22.0397 110.195 22.1043C110.403 22.1856 110.474 22.2669 110.474 22.7297V28.3208C110.497 29.3638 110.474 30.4075 110.403 31.4478C110.337 31.8418 110.266 31.9231 110.124 32.0044C110.041 32.0654 109.943 32.0939 109.845 32.0857C109.772 32.077 109.7 32.0955 109.637 32.1384C109.575 32.1813 109.527 32.2462 109.5 32.3233C109.5 32.4797 109.566 32.6423 109.916 32.6423H113.129C113.479 32.6423 113.545 32.4046 113.545 32.3233C113.545 32.242 113.61 31.9919 113.271 31.9919ZM121.153 20.9035C117.453 20.9035 115.778 23.9367 115.778 26.8073C115.761 27.5651 115.875 28.3192 116.114 29.0266C116.353 29.7339 116.711 30.3805 117.169 30.9294C117.626 31.4784 118.174 31.9188 118.781 32.2256C119.387 32.5324 120.041 32.6995 120.704 32.7173H121.087C121.768 32.7569 122.449 32.6426 123.091 32.381C123.734 32.1194 124.324 31.7156 124.83 31.1928C125.335 30.6699 125.745 30.0383 126.037 29.3341C126.328 28.6298 126.495 27.8668 126.528 27.0887C126.536 26.9137 126.536 26.7384 126.528 26.5634C126.457 23.0549 124.432 20.9035 121.153 20.9035ZM121.569 31.5916C119.336 31.5916 117.798 29.4402 117.798 26.1694C117.798 22.2606 119.686 21.6978 120.803 21.6978C122.899 21.6978 124.432 23.8554 124.432 26.8886C124.36 31.1914 122.406 31.5916 121.569 31.5916ZM46.6587 31.354C47.6215 31.1023 48.6049 30.9681 49.5925 30.9537C50.2223 30.9672 50.8509 31.0215 51.4754 31.1163C51.8968 32.3108 52.3128 33.4241 52.7343 34.5435C53.283 33.2092 53.6361 31.7809 53.7797 30.3158C53.7085 30.3158 53.6429 30.2345 53.5717 30.2345C52.2471 26.8824 50.7802 23.2175 50.0796 21.3788C49.8716 20.9848 49.7293 20.7534 49.5323 20.7534C49.3352 20.7534 49.182 20.9973 48.9849 21.3788C48.4376 22.8172 46.9597 26.726 45.564 30.2345C42.8617 31.1098 40.4362 32.8536 38.5761 35.2583C36.716 37.6631 35.4995 40.6276 35.0713 43.7995V43.8745L36.467 42.9989C36.9646 40.4949 37.9959 38.1702 39.4693 36.2313C40.9427 34.2925 42.8126 32.7997 44.9126 31.8856C43.8672 34.6749 43.0298 36.8325 43.0298 36.8888C42.5426 38.0833 42.1923 39.0402 41.1469 39.1215H40.7254C40.6426 39.134 40.5673 39.1827 40.5152 39.2573C40.4632 39.3319 40.4385 39.4267 40.4463 39.5217C40.4463 39.6781 40.5174 39.8407 40.8677 39.8407H44.8524C45.1973 39.8407 45.3998 39.6781 45.3998 39.5217C45.3998 39.3654 45.3286 39.1215 44.8524 39.1215C44.1518 39.1215 44.1518 38.7212 44.1518 38.4022C44.184 37.8856 44.2779 37.3764 44.431 36.8888C44.5678 37.0952 45.5421 34.3059 46.6587 31.354ZM48.8919 25.4502C48.9685 25.3188 49.0397 25.1875 49.1053 25.0499C49.171 25.0499 49.2422 25.1312 49.3133 25.3689C49.5925 26.2444 50.2219 27.9205 50.9171 29.7467C50.5023 29.676 50.0827 29.6488 49.6636 29.6654C48.8457 29.636 48.027 29.6883 47.217 29.8217C47.9887 28.0018 48.547 26.257 48.8919 25.4502V25.4502ZM64.1848 43.8745C63.7859 40.9838 62.7318 38.2626 61.1273 35.9816C59.5227 33.7006 57.4236 31.9392 55.0386 30.8724C54.9148 31.2796 54.8214 31.698 54.7595 32.1232C56.7638 33.0661 58.5399 34.5467 59.9376 36.4398C61.3352 38.3329 62.3133 40.5827 62.7891 42.9989L64.1848 43.8745ZM58.5964 39.3278C58.4322 39.3217 58.269 39.2966 58.1092 39.2528C57.6221 39.0902 56.9215 38.6899 56.0129 36.5385C55.8049 36.057 55.3178 34.6248 54.5515 32.8674C54.2584 34.0791 53.8605 35.2544 53.3637 36.3759C53.9932 37.9707 54.338 39.0089 54.338 39.0089V39.1715C54.3119 39.2341 54.2729 39.2885 54.2242 39.3299C54.1756 39.3713 54.1188 39.3985 54.0588 39.4091C53.922 39.4091 53.5717 39.4904 53.5717 39.8094C53.5717 40.1284 53.8509 40.1284 54.2012 40.2097H58.6675C59.0178 40.2097 59.089 39.9657 59.089 39.8907C59.0178 39.4904 58.8098 39.3278 58.5964 39.3278Z" fill="#1A5FA8"/>
</g>
<defs>
<clipPath id="clip0">
<rect width="104.024" height="31.2701" fill="white" transform="translate(35 15)"/>
</clipPath>
</defs>
</svg>
