<svg width="175" height="62" viewBox="0 0 175 62" fill="none" xmlns="http://www.w3.org/2000/svg">
<g clip-path="url(#clip0)">
<path d="M45.632 36.7449C48.7506 36.7449 51.2787 33.9805 51.2787 30.5705C51.2787 27.1604 48.7506 24.396 45.632 24.396C42.5134 24.396 39.9854 27.1604 39.9854 30.5705C39.9854 33.9805 42.5134 36.7449 45.632 36.7449Z" fill="white"/>
<path d="M65.9417 22.6837C63.5217 22.6837 59.8205 21.4385 59.8205 21.4385C59.2783 23.1754 59.0056 24.9993 59.0139 26.8346C59.0139 29.9478 61.3864 38.1458 66.1789 40.2213C66.1789 40.2213 73.0119 35.4996 73.0119 27.2497C73.0119 22.3205 72.3476 21.4385 72.3476 21.4385C72.3476 21.4385 68.3617 22.6837 65.9417 22.6837Z" fill="white"/>
<path d="M80.0352 29.0658V20.1414H83.1195C84.5904 20.0376 86.0614 20.7121 86.0614 22.4763C86.05 22.9287 85.9053 23.365 85.6488 23.7203C85.3923 24.0756 85.0377 24.3308 84.6379 24.4479C85.147 24.53 85.6112 24.8126 85.9433 25.2425C86.2753 25.6725 86.4523 26.2202 86.441 26.7828C86.441 28.547 84.4006 29.2215 83.1669 29.1177H80.0352V29.0658ZM83.1669 23.7215C83.9261 23.7215 84.3057 23.4102 84.3057 22.6838C84.3057 21.9574 83.8787 21.6461 83.1669 21.6461H81.7908V23.7734H83.1669V23.7215ZM83.1669 27.5611C83.9736 27.5611 84.543 27.4055 84.543 26.3677C84.543 25.33 83.9736 25.1744 83.1669 25.1744H81.7908V27.5611H83.1669ZM89.2406 20.1414V29.0658H87.5324V20.1414H89.2406ZM94.4128 28.2875C94.218 28.5948 93.9542 28.8421 93.6467 29.0057C93.3392 29.1693 92.9984 29.2436 92.6571 29.2215C92.0877 29.2215 90.9963 28.7545 90.8065 27.8724C90.7349 27.5499 90.703 27.2184 90.7116 26.8866V22.8395H92.4199V26.5753C92.4199 27.2498 92.6097 28.0281 93.4163 28.0281C93.9383 28.0281 94.4128 27.5092 94.4128 26.5753V22.8395H96.121V27.9243C96.121 28.2875 96.1685 28.6507 96.1685 29.0139H94.4602L94.4128 28.2875ZM99.1104 26.4715C99.1104 27.3017 99.2053 28.0281 100.107 28.0281C100.345 28.0592 100.584 27.9909 100.778 27.837C100.971 27.683 101.105 27.4547 101.151 27.1979H102.669C102.527 28.7545 101.436 29.2215 100.107 29.2215C98.1614 29.2215 97.3548 28.0281 97.3548 25.9526C97.3548 24.0847 98.3512 22.6319 100.107 22.6319C100.602 22.5873 101.098 22.707 101.53 22.9755C101.961 23.2439 102.309 23.6486 102.527 24.1366C102.665 24.4845 102.761 24.8509 102.812 25.2262C102.852 25.6224 102.868 26.0211 102.859 26.4196H99.1104V26.4715ZM101.103 25.2262C101.103 24.5517 100.914 23.9291 100.107 23.9291C99.3002 23.9291 99.1579 24.5517 99.1104 25.2262H101.103ZM108.601 22.9951C108.615 22.7661 108.585 22.5363 108.512 22.3212C108.438 22.1062 108.323 21.9108 108.175 21.7485C108.026 21.5862 107.848 21.4606 107.651 21.3802C107.454 21.2999 107.244 21.2667 107.035 21.2829C105.801 21.2829 105.469 23.3065 105.469 24.5517C105.469 25.797 105.801 27.8206 107.035 27.8206C107.244 27.8367 107.454 27.8035 107.651 27.7232C107.848 27.6429 108.026 27.5173 108.175 27.3549C108.323 27.1926 108.438 26.9973 108.512 26.7822C108.585 26.5671 108.615 26.3373 108.601 26.1083H110.451C110.356 28.3394 108.885 29.1696 107.035 29.1696C104.662 29.1696 103.618 27.146 103.618 24.4998C103.618 21.8536 104.662 19.8301 107.035 19.8301C108.933 19.8301 110.404 20.6603 110.451 22.8914H108.601V22.9951ZM112.919 22.8395L112.966 23.981C113.346 22.9951 114.057 22.7357 114.912 22.7876V24.4479H114.152C113.995 24.455 113.84 24.5006 113.701 24.5814C113.561 24.6622 113.44 24.7762 113.346 24.9149C113.173 25.2458 113.091 25.624 113.108 26.0045V29.0658H111.4V24.0847C111.4 23.8253 111.353 23.3065 111.353 22.8395H112.919ZM118.613 29.2734C116.762 29.2734 115.623 27.9243 115.623 25.9526C115.623 23.981 116.715 22.6319 118.613 22.6319C120.511 22.6319 121.602 23.981 121.602 25.9526C121.602 27.9243 120.463 29.2734 118.613 29.2734ZM118.613 28.0281C119.657 28.0281 119.847 26.9385 119.847 25.9526C119.847 24.9668 119.657 23.8772 118.613 23.8772C117.569 23.8772 117.379 24.9668 117.379 25.9526C117.379 26.9385 117.569 28.0281 118.613 28.0281V28.0281ZM125.683 24.4998C125.683 24.0847 125.303 23.8772 124.924 23.8772C124.449 23.8772 124.259 24.0329 124.259 24.4479C124.259 25.4338 127.534 24.863 127.534 27.1979C127.534 28.547 126.015 29.2215 124.971 29.2215C123.643 29.2215 122.504 28.6507 122.456 27.2498H124.022C124.06 27.4875 124.179 27.7006 124.355 27.8453C124.532 27.99 124.752 28.0554 124.971 28.0281C125.446 28.0281 125.778 27.8206 125.778 27.3536C125.778 26.8866 124.971 26.6272 124.639 26.5753C123.548 26.3159 122.551 26.0045 122.551 24.6036C122.551 23.3065 123.975 22.7357 124.971 22.7357C126.157 22.7357 127.201 23.2027 127.249 24.6036H125.683V24.4998ZM131.33 24.4998C131.33 24.0847 130.95 23.8772 130.57 23.8772C130.096 23.8772 129.906 24.0329 129.906 24.4479C129.906 25.4338 133.18 24.863 133.18 27.1979C133.18 28.547 131.662 29.2215 130.618 29.2215C129.289 29.2215 128.15 28.6507 128.103 27.2498H129.669C129.706 27.4875 129.825 27.7006 130.002 27.8453C130.178 27.99 130.399 28.0554 130.618 28.0281C131.092 28.0281 131.425 27.8206 131.425 27.3536C131.425 26.8866 130.618 26.6272 130.286 26.5753C129.194 26.3159 128.198 26.0045 128.198 24.6036C128.198 23.3065 129.621 22.7357 130.618 22.7357C131.804 22.7357 132.848 23.2027 132.896 24.6036H131.33V24.4998V24.4998ZM80.0352 41.2072V32.2828H83.1195C84.5904 32.179 86.0614 32.8535 86.0614 34.6176C86.05 35.0701 85.9053 35.5064 85.6488 35.8617C85.3923 36.2169 85.0377 36.4721 84.6379 36.5893C85.147 36.6714 85.6112 36.9539 85.9433 37.3839C86.2753 37.8138 86.4523 38.3616 86.441 38.9242C86.441 40.6883 84.4006 41.3628 83.1669 41.2591H80.0352V41.2072ZM83.1669 35.8629C83.9261 35.8629 84.3057 35.5516 84.3057 34.8252C84.3057 34.0988 83.8787 33.7875 83.1669 33.7875H81.7908V35.9148L83.1669 35.8629ZM83.1669 39.7025C83.9736 39.7025 84.543 39.5468 84.543 38.5091C84.543 37.4714 83.9736 37.3157 83.1669 37.3157H81.7908V39.7025H83.1669ZM89.2406 32.2828V41.2072H87.5324V32.2828H89.2406ZM94.4128 40.4289C94.218 40.7362 93.9542 40.9835 93.6467 41.1471C93.3392 41.3106 92.9984 41.3849 92.6571 41.3628C92.0877 41.3628 90.9963 40.8959 90.8065 39.9619C90.7349 39.6394 90.703 39.3079 90.7116 38.9761V34.929H92.4199V38.7167C92.4199 39.3912 92.6097 40.1695 93.4163 40.1695C93.9383 40.1695 94.4128 39.6506 94.4128 38.7167V34.9808H96.121V40.0657C96.121 40.4289 96.1685 40.7921 96.1685 41.1553H94.4602L94.4128 40.4289ZM99.1104 38.6129C99.1104 39.4431 99.2053 40.1695 100.107 40.1695C100.345 40.2006 100.584 40.1323 100.778 39.9783C100.971 39.8244 101.105 39.5961 101.151 39.3393H102.669C102.527 40.8959 101.436 41.3628 100.107 41.3628C98.1614 41.3628 97.3548 40.1695 97.3548 38.094C97.3548 36.2261 98.3512 34.7733 100.107 34.7733C100.602 34.7286 101.098 34.8484 101.53 35.1168C101.961 35.3853 102.309 35.79 102.527 36.278C102.665 36.6259 102.761 36.9923 102.812 37.3676C102.852 37.7638 102.868 38.1625 102.859 38.561L99.1104 38.6129V38.6129ZM101.103 37.3676C101.103 36.6931 100.914 36.0705 100.107 36.0705C99.3002 36.0705 99.1579 36.6931 99.1104 37.3676H101.103ZM108.363 34.8252C108.368 34.6331 108.334 34.4423 108.264 34.266C108.195 34.0896 108.091 33.9319 107.96 33.8036C107.829 33.6754 107.674 33.5797 107.506 33.5231C107.339 33.4666 107.161 33.4506 106.987 33.4761C106.323 33.4761 105.706 33.8393 105.706 34.6176C105.706 35.6035 106.513 35.7073 107.225 35.8629C108.458 36.2261 110.309 36.5893 110.309 38.4053C110.309 40.6364 108.553 41.4147 106.797 41.4147C104.947 41.4147 103.618 40.6364 103.666 38.3534H105.469C105.438 38.5658 105.451 38.783 105.507 38.9891C105.563 39.1952 105.661 39.3849 105.793 39.5442C105.925 39.7036 106.088 39.8285 106.27 39.9097C106.452 39.991 106.649 40.0266 106.845 40.0138C107.557 40.0138 108.458 39.7544 108.458 38.8204C108.458 37.7827 107.272 37.6789 106.608 37.4714C105.469 37.1601 103.903 36.5893 103.903 34.9808C103.903 32.9573 105.611 32.0233 107.319 32.0233C108.885 32.0233 110.119 32.9573 110.119 34.7733L108.363 34.8252ZM111.495 41.2072V32.2828H113.203V35.7591C113.394 35.4477 113.658 35.1972 113.966 35.0332C114.274 34.8691 114.617 34.7973 114.959 34.8252C115.528 34.8252 116.62 35.2922 116.81 36.1742C116.881 36.4967 116.913 36.8283 116.905 37.1601V41.2072H115.244V37.4714C115.244 36.7969 115.054 36.0705 114.247 36.0705C113.725 36.0705 113.251 36.5893 113.251 37.4714V41.2072H111.495ZM120.179 32.2828V33.8912H118.376V32.2828H120.179ZM120.084 34.9808V41.2072H118.376V34.9808H120.084ZM123.073 38.6129C123.073 39.4431 123.168 40.1695 124.07 40.1695C124.307 40.2006 124.547 40.1323 124.741 39.9783C124.934 39.8244 125.067 39.5961 125.114 39.3393H126.632C126.49 40.8959 125.398 41.3628 124.07 41.3628C122.124 41.3628 121.317 40.1695 121.317 38.094C121.317 36.2261 122.314 34.7733 124.07 34.7733C124.565 34.7286 125.06 34.8484 125.492 35.1168C125.924 35.3853 126.272 35.79 126.49 36.278C126.628 36.6259 126.724 36.9923 126.774 37.3676C126.815 37.7638 126.831 38.1625 126.822 38.561L123.073 38.6129V38.6129ZM125.019 37.3676C125.019 36.6931 124.829 36.0705 124.022 36.0705C123.216 36.0705 123.073 36.6931 123.026 37.3676H125.019ZM129.527 32.2828V41.2072H127.818V32.2828H129.527ZM134.936 32.2828H136.644V40.0138C136.644 40.4289 136.692 40.844 136.692 41.2591H134.983C134.983 40.9478 134.936 40.6883 134.936 40.377C134.767 40.7208 134.512 41.0055 134.202 41.1982C133.891 41.391 133.537 41.484 133.18 41.4666C131.519 41.4666 130.713 39.7544 130.713 38.1459C130.713 36.5374 131.614 34.8252 133.37 34.8252C133.668 34.8363 133.959 34.9216 134.222 35.0744C134.486 35.2272 134.713 35.4437 134.888 35.7073L134.936 32.2828V32.2828ZM133.702 40.1695C134.604 40.1695 134.936 38.9761 134.936 38.094C134.936 37.212 134.651 36.0186 133.702 36.0186C132.611 36.0186 132.468 37.1082 132.468 38.094C132.468 39.0799 132.611 40.1695 133.702 40.1695V40.1695ZM133.987 29.0658C133.884 29.0658 133.783 29.0323 133.697 28.9696C133.611 28.9069 133.544 28.8178 133.505 28.7135C133.465 28.6092 133.455 28.4944 133.475 28.3837C133.495 28.273 133.545 28.1713 133.618 28.0915C133.691 28.0117 133.784 27.9573 133.885 27.9353C133.986 27.9133 134.091 27.9246 134.187 27.9678C134.282 28.011 134.364 28.0841 134.421 28.178C134.478 28.2718 134.509 28.3822 134.509 28.4951C134.516 28.572 134.508 28.6498 134.484 28.7228C134.461 28.7958 134.423 28.862 134.373 28.9167C134.322 28.9715 134.262 29.0133 134.195 29.0391C134.128 29.0648 134.057 29.074 133.987 29.0658V29.0658ZM133.987 27.7687C133.865 27.7687 133.746 27.8082 133.644 27.8823C133.543 27.9565 133.464 28.0618 133.417 28.1851C133.37 28.3083 133.358 28.4439 133.382 28.5748C133.406 28.7056 133.464 28.8258 133.551 28.9201C133.637 29.0145 133.747 29.0787 133.867 29.1047C133.986 29.1308 134.11 29.1174 134.223 29.0664C134.336 29.0153 134.432 28.9289 134.5 28.8179C134.568 28.707 134.604 28.5766 134.604 28.4432C134.601 28.2651 134.536 28.0951 134.42 27.9692C134.305 27.8433 134.15 27.7713 133.987 27.7687Z" fill="#231F20"/>
<path d="M133.986 28.4433H133.844V28.1839H134.034C134.129 28.1839 134.224 28.1839 134.224 28.2876C134.224 28.3914 134.081 28.4433 133.986 28.4433ZM134.318 28.2876C134.318 28.132 134.271 28.0801 134.081 28.0801H133.749V28.8584H133.844V28.4952H133.986L134.224 28.8584H134.318L134.129 28.4952C134.154 28.4975 134.18 28.4938 134.204 28.4842C134.228 28.4746 134.25 28.4594 134.268 28.4396C134.286 28.4199 134.3 28.396 134.308 28.3698C134.317 28.3435 134.321 28.3155 134.318 28.2876V28.2876ZM137.64 41.1554C137.537 41.1554 137.436 41.1219 137.35 41.0592C137.264 40.9965 137.197 40.9074 137.158 40.8031C137.118 40.6988 137.108 40.584 137.128 40.4733C137.148 40.3626 137.198 40.2609 137.271 40.1811C137.344 40.1012 137.437 40.0469 137.538 40.0249C137.639 40.0028 137.744 40.0141 137.84 40.0573C137.935 40.1005 138.017 40.1737 138.074 40.2676C138.131 40.3614 138.162 40.4718 138.162 40.5846C138.161 40.7356 138.105 40.88 138.008 40.9867C137.91 41.0935 137.778 41.154 137.64 41.1554ZM137.64 39.8582C137.518 39.8582 137.399 39.8978 137.297 39.9719C137.196 40.046 137.117 40.1514 137.07 40.2746C137.023 40.3979 137.011 40.5335 137.035 40.6644C137.059 40.7952 137.118 40.9154 137.204 41.0097C137.29 41.1041 137.4 41.1683 137.52 41.1943C137.639 41.2203 137.763 41.207 137.876 41.1559C137.989 41.1049 138.085 41.0184 138.153 40.9075C138.221 40.7966 138.257 40.6662 138.257 40.5328C138.254 40.3547 138.189 40.1847 138.073 40.0588C137.958 39.9328 137.803 39.8609 137.64 39.8582" fill="#231F20"/>
<path d="M137.592 40.5326H137.45V40.2732H137.64C137.734 40.2732 137.829 40.2732 137.829 40.377C137.829 40.4808 137.735 40.5326 137.592 40.5326ZM137.972 40.377C137.972 40.2213 137.924 40.1694 137.734 40.1694H137.402V40.9477H137.497V40.5845H137.64L137.829 40.9477H137.924L137.734 40.5845C137.877 40.5845 137.972 40.5326 137.972 40.377Z" fill="#231F20"/>
<path d="M54.2213 38.9245C53.9318 38.9245 53.6542 39.0502 53.4495 39.274C53.2449 39.4978 53.1299 39.8014 53.1299 40.1179C53.1299 40.4344 53.2449 40.7379 53.4495 40.9617C53.6542 41.1855 53.9318 41.3113 54.2213 41.3113C54.5096 41.3072 54.785 41.1802 54.9889 40.9573C55.1928 40.7343 55.3089 40.4331 55.3126 40.1179C55.3152 39.9604 55.2887 39.8039 55.2348 39.6579C55.1809 39.5118 55.1006 39.3792 54.9987 39.2678C54.8968 39.1564 54.7755 39.0686 54.6419 39.0096C54.5084 38.9506 54.3653 38.9217 54.2213 38.9245V38.9245ZM54.2213 41.1037C54.0429 41.1037 53.8686 41.0459 53.7204 40.9376C53.5721 40.8293 53.4566 40.6753 53.3883 40.4951C53.3201 40.315 53.3022 40.1168 53.337 39.9256C53.3718 39.7343 53.4577 39.5587 53.5838 39.4208C53.7098 39.2829 53.8705 39.189 54.0454 39.151C54.2203 39.113 54.4015 39.1325 54.5663 39.2071C54.731 39.2817 54.8718 39.4081 54.9709 39.5702C55.07 39.7323 55.1228 39.9229 55.1228 40.1179C55.1313 40.2497 55.1137 40.382 55.0714 40.5058C55.0291 40.6296 54.963 40.742 54.8775 40.8355C54.792 40.9289 54.6892 41.0012 54.576 41.0475C54.4628 41.0938 54.3418 41.113 54.2213 41.1037V41.1037Z" fill="#008BCC"/>
<path d="M54.7906 39.8064C54.7906 39.547 54.6957 39.4432 54.3635 39.4432H53.8415V40.7923H53.9839V40.2215H54.2686L54.6008 40.7923H54.7906L54.411 40.2215C54.6482 40.1696 54.7906 40.0659 54.7906 39.8064ZM54.2212 40.014H53.9839V39.5989H54.3161C54.4584 39.5989 54.6008 39.5989 54.6008 39.8064C54.6008 40.014 54.3635 40.014 54.2212 40.014ZM45.68 32.1792C45.6325 32.1792 45.6325 32.1792 45.5851 32.2311L43.7819 35.2405C44.3668 35.5142 44.9964 35.6554 45.6325 35.6554C46.2687 35.6554 46.8983 35.5142 47.4831 35.2405L45.68 32.2311C45.7274 32.1792 45.68 32.1792 45.68 32.1792ZM43.9243 29.6886L41.2196 29.4292C41.1226 29.818 41.0747 30.2196 41.0772 30.6226C41.0833 31.8176 41.4691 32.9732 42.1686 33.8914L44.0667 29.9481C44.1616 29.8443 44.1141 29.7405 43.9243 29.6886V29.6886Z" fill="#008BCC"/>
<path d="M49.9506 25.9007V20.0376H41.362V25.9007H36V35.2921H41.362V41.1553H49.9506V35.2921H55.3125V25.9007H49.9506ZM45.68 24.8111C46.6927 24.8002 47.6862 25.1138 48.5379 25.7131C49.3896 26.3124 50.0621 27.1713 50.4725 28.1837H46.6765C46.4964 28.2011 46.3165 28.1481 46.1688 28.0341C46.0211 27.9201 45.9151 27.7525 45.8698 27.5611C45.8676 27.4172 45.8917 27.2743 45.9406 27.1407C45.9895 27.007 46.0622 26.8854 46.1545 26.7828C46.2334 26.6752 46.2829 26.5455 46.2972 26.4085C46.3116 26.2715 46.2903 26.1329 46.2357 26.0086C46.1812 25.8843 46.0956 25.7794 45.9889 25.7059C45.8822 25.6325 45.7586 25.5935 45.6325 25.5935C45.5064 25.5935 45.3829 25.6325 45.2762 25.7059C45.1695 25.7794 45.0839 25.8843 45.0294 26.0086C44.9748 26.1329 44.9535 26.2715 44.9678 26.4085C44.9822 26.5455 45.0317 26.6752 45.1106 26.7828C45.2029 26.8854 45.2756 27.007 45.3245 27.1407C45.3734 27.2743 45.3974 27.4172 45.3953 27.5611C45.3953 27.8205 45.158 28.1837 44.5886 28.1837H40.7925C41.2416 27.1818 41.9364 26.3359 42.7994 25.7404C43.6623 25.1449 44.6596 24.8232 45.68 24.8111ZM40.3655 30.6224C40.3752 29.9326 40.4874 29.2492 40.6976 28.5988L44.2565 28.962C44.3805 28.9812 44.4984 29.033 44.6 29.113C44.7017 29.1929 44.7841 29.2987 44.8401 29.4212C44.8961 29.5437 44.9241 29.6792 44.9216 29.8162C44.9191 29.9531 44.8863 30.0873 44.8259 30.2073L42.4059 35.2402C41.7717 34.6863 41.2592 33.9839 40.906 33.1847C40.5529 32.3855 40.3682 31.5099 40.3655 30.6224V30.6224ZM48.5745 35.4997C47.7014 36.1257 46.6766 36.4511 45.6325 36.4336C44.5917 36.4263 43.5732 36.103 42.6906 35.4997L45.3004 31.2969C45.3332 31.232 45.3813 31.1779 45.4398 31.1403C45.4982 31.1026 45.5647 31.0828 45.6325 31.0828C45.7004 31.0828 45.7669 31.1026 45.8253 31.1403C45.8838 31.1779 45.9319 31.232 45.9647 31.2969L48.5745 35.4997ZM48.9541 35.1884L46.5341 30.2073C46.4737 30.0873 46.4409 29.9531 46.4384 29.8162C46.4359 29.6792 46.4639 29.5437 46.5199 29.4212C46.5759 29.2987 46.6583 29.1929 46.7599 29.113C46.8616 29.033 46.9795 28.9812 47.1035 28.962L50.6623 28.5988C50.8911 29.2437 51.0039 29.9308 50.9945 30.6224C50.9968 31.5035 50.814 32.3734 50.4603 33.165C50.1065 33.9567 49.5912 34.6489 48.9541 35.1884V35.1884Z" fill="#008BCC"/>
<path d="M49.1446 27.3535C48.5731 26.6109 47.8138 26.0694 46.9619 25.7969C47.0637 26.0328 47.0999 26.2962 47.0662 26.5544C47.0325 26.8126 46.9302 27.0544 46.7721 27.2497C46.7658 27.2565 46.7608 27.2645 46.7573 27.2734C46.7539 27.2823 46.7521 27.2919 46.7521 27.3016C46.7521 27.3112 46.7539 27.3208 46.7573 27.3297C46.7608 27.3386 46.7658 27.3467 46.7721 27.3535H49.1446ZM47.4364 29.6883C47.2466 29.6883 47.2466 29.7921 47.294 29.8959L49.1921 33.8392C49.8916 32.921 50.2774 31.7654 50.2835 30.5704C50.286 30.1674 50.2381 29.7659 50.1411 29.377L47.4364 29.6883ZM44.3995 25.8488C43.5477 26.1213 42.7884 26.6628 42.2168 27.4053H44.5893C44.6368 27.4053 44.6368 27.3535 44.5893 27.3016C44.4328 27.1053 44.3317 26.8637 44.298 26.6059C44.2643 26.3481 44.2996 26.0851 44.3995 25.8488V25.8488Z" fill="#008BCC"/>
<path d="M72.5853 20.0376C70.5487 21.1976 68.286 21.8028 65.9896 21.8017C63.6933 21.8028 61.4306 21.1976 59.394 20.0376C58.0179 22.9951 57.8281 27.7686 59.0144 31.7639C60.1289 35.8094 62.6274 39.229 65.9896 41.3109C69.6434 39.1317 71.8261 35.6035 72.9649 31.7639C74.1987 27.7686 73.9614 22.9951 72.5853 20.0376ZM71.6363 31.2969C70.5924 34.5657 69.0265 37.4714 66.0371 39.4949C63.0477 37.4714 61.4344 34.5657 60.4379 31.2969C59.5363 28.3913 59.2991 24.9668 60.2955 22.3206C61.3286 22.7196 62.3927 23.0149 63.4747 23.2027C64.3203 23.3655 65.1788 23.4351 66.0371 23.4102C66.8946 23.4067 67.7508 23.3373 68.5994 23.2027C69.6826 23.0208 70.7472 22.7254 71.7787 22.3206C72.7277 24.9668 72.5379 28.3913 71.6363 31.2969Z" fill="#008BCC"/>
<path d="M68.598 23.9293C67.7322 24.05 66.8609 24.1193 65.9882 24.1368C65.1156 24.1174 64.2445 24.0482 63.3784 23.9293C62.5243 23.7736 61.6702 23.5661 60.7686 23.3066C60.1518 25.2783 60.2467 27.7689 60.7686 29.9481C61.6702 34.099 63.9953 37.264 65.9882 38.665C68.0286 37.264 70.3063 34.099 71.2078 29.9481C71.6823 27.717 71.8247 25.2783 71.2078 23.3066C70.354 23.5882 69.4815 23.7963 68.598 23.9293ZM65.5137 36.7452C65.4663 36.9527 65.5612 37.0565 65.5612 37.1603C65.5612 37.264 65.4188 37.264 65.3714 37.1603C65.2682 37.0117 65.2177 36.8275 65.229 36.6414C65.2077 36.516 65.2185 36.3865 65.2604 36.2675C65.3023 36.1484 65.3736 36.0443 65.4663 35.9669C65.5223 35.9052 65.5862 35.8528 65.6561 35.8112L65.7035 36.4857C65.6086 36.4857 65.5137 36.5376 65.5137 36.7452ZM66.3204 37.4197C66.3204 37.5235 66.2729 37.6272 66.0831 37.6272C65.8933 37.6272 65.8459 37.5753 65.8459 37.3678C65.7984 36.5376 65.7984 35.0329 65.7984 35.0329C65.9155 35.0667 66.0274 35.1191 66.1306 35.1886C66.178 35.1886 66.2729 35.2923 66.3678 35.3961C66.3678 35.448 66.4153 35.448 66.4153 35.4999C66.3678 36.0706 66.3204 37.1603 66.3204 37.4197V37.4197ZM66.9372 35.8631C66.8231 35.9567 66.6946 36.027 66.5576 36.0706V35.448C66.5905 35.4043 66.6075 35.3489 66.6051 35.2923C66.4277 35.0826 66.2191 34.9071 65.9882 34.7735C65.7559 34.6715 65.5183 34.5848 65.2765 34.5141C65.1688 34.4771 65.0697 34.4152 64.9858 34.3327C64.9019 34.2502 64.8352 34.1489 64.7902 34.0358C64.7452 33.9226 64.7229 33.8002 64.725 33.6768C64.727 33.5534 64.7533 33.432 64.8019 33.3207C64.8494 33.1131 65.0867 33.0094 65.1816 32.9575C65.2738 32.9146 65.369 32.8799 65.4663 32.8537L65.5137 33.5801C65.5137 33.5801 65.4663 33.5801 65.4188 33.6839C65.4114 33.7042 65.4081 33.7261 65.4089 33.7479C65.4098 33.7698 65.4149 33.7913 65.4238 33.8109C65.4328 33.8304 65.4454 33.8477 65.4609 33.8616C65.4764 33.8755 65.4944 33.8857 65.5137 33.8914C65.8865 34.0604 66.2508 34.2509 66.6051 34.4622C67.0321 34.7216 67.1745 34.9291 67.1745 35.2923C67.1915 35.4025 67.178 35.5157 67.1357 35.6174C67.0934 35.7191 67.0243 35.8047 66.9372 35.8631ZM65.751 32.4905C66.0831 32.5424 66.178 32.5424 66.4627 32.5943L66.4153 34.0471L66.1306 33.8914L65.8459 33.7358L65.751 32.4905ZM67.649 32.8018C67.6235 32.9333 67.5721 33.0572 67.4984 33.1647C67.4246 33.2723 67.3303 33.3609 67.2219 33.4244C67.0619 33.5212 66.8829 33.5746 66.7 33.5801V32.698C66.7364 32.6943 66.7703 32.6758 66.7949 32.6462C66.8128 32.6257 66.8264 32.6011 66.8346 32.5741C66.8428 32.5472 66.8454 32.5187 66.8423 32.4905C66.8423 32.4386 66.7949 32.3867 66.7474 32.3348C66.6732 32.2973 66.5919 32.2795 66.5102 32.2829L65.3714 32.1273C65.2187 32.1239 65.0681 32.0877 64.9282 32.0207C64.7884 31.9536 64.6619 31.8572 64.5562 31.7367C64.4504 31.6162 64.3674 31.4742 64.3119 31.3186C64.2564 31.1631 64.2294 30.9971 64.2325 30.8301C64.28 30.3632 64.707 30.2075 65.0392 30.0518L65.2765 30.5707C65.2987 30.6776 65.3305 30.7819 65.3714 30.882C65.3714 30.882 65.229 30.9339 65.229 31.0377C65.229 31.1415 65.3714 31.1933 65.4188 31.1933C65.9188 31.232 66.4127 31.3365 66.8898 31.5047C67.1122 31.5802 67.3099 31.7244 67.4592 31.9197C67.6237 32.1762 67.6917 32.492 67.649 32.8018V32.8018ZM65.4663 29.4292C65.4663 29.4292 65.6086 29.4292 66.0357 29.4811C66.2138 29.483 66.3903 29.5181 66.5576 29.5849L66.5102 31.1415C66.178 31.0896 65.9882 31.0377 65.7035 30.9858C65.6279 30.5632 65.4832 30.1589 65.2765 29.7924C65.229 29.6886 65.2765 29.6368 65.2765 29.6368C65.35 29.5885 65.4301 29.5535 65.5137 29.533L65.4663 29.4292ZM66.7474 30.9858C66.7474 30.9858 66.7949 30.2594 66.7949 29.8962C66.8349 29.8879 66.8723 29.8684 66.9034 29.8398C66.9346 29.8111 66.9585 29.7741 66.9728 29.7324C66.9871 29.6907 66.9913 29.6457 66.9851 29.6017C66.9789 29.5576 66.9624 29.5161 66.9372 29.4811C66.9107 29.4375 66.8757 29.401 66.8346 29.374C66.7936 29.3471 66.7476 29.3305 66.7 29.3254C66.3396 29.2481 65.9751 29.1961 65.6086 29.1698C65.2765 29.1179 64.9918 29.066 64.707 29.0141C64.3999 28.9548 64.1086 28.8216 63.8542 28.6242C63.5998 28.4268 63.3887 28.1701 63.2361 27.8726C63.0721 27.4932 63.0497 27.0588 63.1737 26.6617C63.2978 26.2645 63.5584 25.9358 63.9004 25.7453C64.1498 25.6047 64.4264 25.5313 64.707 25.5313C64.9877 25.5313 65.2643 25.6047 65.5137 25.7453C65.7035 25.7972 65.7984 26.0047 65.8933 26.1604C65.9408 26.2123 66.0357 26.2642 66.0831 26.3679C66.1306 26.4717 66.0357 26.4198 66.0357 26.4198C65.8328 26.4718 65.6217 26.4718 65.4188 26.4198H64.8494C65.0178 26.5344 65.1921 26.6384 65.3714 26.7311C65.4663 26.783 65.5612 26.783 65.6561 26.8349C65.751 26.8868 65.7984 26.8868 65.7984 26.9387C65.7984 26.9906 65.7035 26.9906 65.6086 27.0424C65.438 27.0958 65.2572 27.0958 65.0867 27.0424C64.8019 26.9906 64.6596 26.783 64.4698 26.8868C64.28 26.9906 64.3274 27.1462 64.3749 27.3538C64.4223 27.6651 64.707 27.7689 64.9443 27.8726C65.751 28.1839 66.6525 27.9764 67.4117 28.4434C67.5801 28.528 67.7303 28.6502 67.8529 28.8021C67.9755 28.954 68.0677 29.1323 68.1235 29.3254C68.3608 30.7783 66.7474 30.9858 66.7474 30.9858ZM68.171 26.1604C68.1235 26.316 68.0761 26.316 67.9812 26.4198C67.7914 26.6274 67.5067 26.8349 67.2219 27.0943C67.0302 27.2261 66.868 27.4035 66.7474 27.6132C66.71 27.6605 66.6781 27.7128 66.6525 27.7689C66.178 27.6651 65.751 27.6651 65.3714 27.5613V27.1462C65.3714 27.1462 65.7984 27.1462 65.8459 26.8349C65.8462 26.7787 65.8295 26.724 65.7984 26.6792C65.7288 26.6229 65.6471 26.5872 65.5612 26.5755C65.9062 26.6493 66.2411 26.7714 66.5576 26.9387C66.5476 26.8681 66.5317 26.7986 66.5102 26.7311C66.4458 26.6562 66.3637 26.6023 66.2729 26.5755C66.0831 26.5236 65.5612 26.4717 65.5612 26.4717H65.9882C66.0831 26.4717 66.2255 26.4198 66.2255 26.3679C66.2255 26.316 66.2255 26.2123 66.1306 26.1085L65.9882 25.9528C65.9408 25.8491 65.8459 25.7453 65.7984 25.6415C65.6616 25.503 65.5001 25.397 65.3239 25.3302C65.3239 25.3302 65.2765 25.0708 65.3714 24.967C65.4055 24.9229 65.4529 24.8934 65.505 24.8839C65.5571 24.8744 65.6107 24.8855 65.6561 24.9151C65.9398 25.0937 66.2426 25.2331 66.5576 25.3302C66.6525 25.3821 66.6525 25.3821 66.6525 25.5377C66.7 25.7972 66.6051 26.1604 66.6525 26.316C66.6525 26.3679 66.7474 26.3679 66.7474 26.3679C67.0796 26.1604 67.2694 25.8491 67.6016 25.6934C67.8388 25.5896 68.2659 25.7972 68.171 26.1604ZM72.6788 38.9763C72.4723 38.9763 72.2705 39.0432 72.0988 39.1686C71.9272 39.2941 71.7934 39.4724 71.7143 39.6809C71.6353 39.8895 71.6147 40.119 71.6549 40.3405C71.6952 40.5619 71.7946 40.7653 71.9406 40.9249C72.0866 41.0846 72.2726 41.1933 72.4751 41.2373C72.6776 41.2814 72.8875 41.2588 73.0783 41.1724C73.269 41.086 73.4321 40.9397 73.5468 40.7519C73.6615 40.5642 73.7227 40.3435 73.7227 40.1178C73.7203 39.8159 73.6095 39.5271 73.4142 39.3136C73.219 39.1001 72.9549 38.979 72.6788 38.9763ZM72.6788 41.1036C72.5005 41.1036 72.3262 41.0458 72.1779 40.9375C72.0297 40.8291 71.9141 40.6752 71.8459 40.495C71.7776 40.3149 71.7598 40.1167 71.7946 39.9254C71.8293 39.7342 71.9152 39.5585 72.0413 39.4207C72.1674 39.2828 72.328 39.1889 72.5029 39.1509C72.6778 39.1128 72.8591 39.1324 73.0238 39.207C73.1886 39.2816 73.3294 39.4079 73.4284 39.5701C73.5275 39.7322 73.5804 39.9228 73.5804 40.1178C73.5843 40.2484 73.5637 40.3785 73.5198 40.5001C73.4759 40.6217 73.4097 40.7321 73.3251 40.8245C73.2406 40.9169 73.1396 40.9894 73.0285 41.0374C72.9173 41.0854 72.7983 41.1079 72.6788 41.1036V41.1036Z" fill="#008BCC"/>
<path d="M73.249 39.8064C73.249 39.547 73.1541 39.4432 72.8219 39.4432H72.3V40.7922H72.4423V40.2215H72.6796L73.0117 40.7922H73.2015L72.8219 40.2215C73.0592 40.1696 73.249 40.0658 73.249 39.8064ZM72.6796 40.0658H72.4423V39.6507H72.7745C72.9168 39.6507 73.0592 39.6507 73.0592 39.8583C73.0592 40.0658 72.8219 40.0658 72.6796 40.0658ZM64.9925 25.7971C65.0874 25.9009 65.0874 26.0047 65.2298 26.0047C65.2665 26.0039 65.3026 25.9942 65.3354 25.9762C65.3683 25.9583 65.397 25.9326 65.4196 25.9009H65.5145C65.3721 25.7452 65.04 25.7452 64.8027 25.6934C64.8976 25.7971 64.9451 25.7452 64.9925 25.7971Z" fill="#008BCC"/>
</g>
<defs>
<clipPath id="clip0">
<rect width="102.494" height="23.4526" fill="white" transform="translate(36 19)"/>
</clipPath>
</defs>
</svg>
