<svg width="175" height="62" viewBox="0 0 175 62" fill="none" xmlns="http://www.w3.org/2000/svg">
<g clip-path="url(#clip0)">
<path d="M48.4366 39.4033L37.1709 33.3382V20L48.4366 39.4033ZM49.3321 41.7153L37.1709 35.9716V41.7153H49.3321Z" fill="#98002E"/>
<path d="M25.8955 39.4033L37.1705 20V33.3382L25.8955 39.4033Z" fill="#E31837"/>
<path d="M25 41.7154H37.1705V35.9717L25 41.7154Z" fill="#E31837"/>
<path d="M50.3151 37.734C50.426 37.7246 50.5374 37.7409 50.6424 37.7818C50.7473 37.8228 50.8436 37.8875 50.9251 37.9719C51.0067 38.0564 51.0717 38.1587 51.1162 38.2725C51.1607 38.3864 51.1836 38.5092 51.1836 38.6334C51.1836 38.7577 51.1607 38.8805 51.1162 38.9944C51.0717 39.1082 51.0067 39.2105 50.9251 39.295C50.8436 39.3794 50.7473 39.4441 50.6424 39.4851C50.5374 39.526 50.426 39.5423 50.3151 39.5328C50.1075 39.5316 49.9084 39.4399 49.7603 39.2773C49.6121 39.1147 49.5265 38.8939 49.5217 38.662V38.662C49.5192 38.5451 49.5375 38.4289 49.5754 38.3199C49.6133 38.211 49.6701 38.1115 49.7425 38.0272C49.815 37.9429 49.9016 37.8754 49.9975 37.8287C50.0934 37.7819 50.1966 37.7568 50.3012 37.7548L50.3151 37.734ZM50.3151 39.3877C50.45 39.3877 50.5819 39.343 50.6941 39.2593C50.8062 39.1755 50.8937 39.0565 50.9453 38.9173C50.9969 38.778 51.0104 38.6248 50.9841 38.477C50.9578 38.3292 50.8928 38.1934 50.7974 38.0868C50.702 37.9803 50.5805 37.9077 50.4482 37.8783C50.3159 37.8489 50.1787 37.864 50.0541 37.9216C49.9295 37.9793 49.823 38.077 49.748 38.2023C49.6731 38.3276 49.6331 38.475 49.6331 38.6257V38.6257C49.6325 38.7251 49.6494 38.8236 49.6828 38.9157C49.7163 39.0078 49.7657 39.0916 49.8282 39.1624C49.8907 39.2331 49.965 39.2894 50.047 39.3281C50.1289 39.3668 50.2169 39.387 50.3059 39.3877H50.3151ZM50.1435 39.1441H50.0228V38.1073H50.3754C50.5935 38.1073 50.6678 38.211 50.6678 38.3872C50.673 38.4599 50.6526 38.5319 50.611 38.5881C50.5694 38.6442 50.5099 38.68 50.445 38.6879L50.7234 39.1337H50.5935L50.3151 38.6879H50.1527L50.1435 39.1441ZM50.1435 38.5738H50.2919C50.4218 38.5738 50.5564 38.5738 50.5564 38.3872C50.5564 38.2006 50.445 38.2213 50.3522 38.2213H50.1527V38.5738H50.1435Z" fill="#98002E"/>
<path d="M58.834 39.4031H64.3044C69.9512 39.4031 73.2734 36.1477 73.2734 30.7409C73.2734 25.3341 69.928 22.1045 64.3044 22.1045H58.834V39.4031ZM62.2907 25.1008H64.3044C67.9468 25.1008 69.7795 27.1173 69.7795 30.7409C69.7795 34.3644 67.9236 36.3809 64.3044 36.3809H62.2907V25.1008Z" fill="#003D79"/>
<path d="M85.0351 31.9024H91.6098V28.8957H85.0351V25.1063H92.4682V22.0996H81.5645V39.4034H92.7095V36.402H85.0351V31.9024Z" fill="#003D79"/>
<path d="M112.42 36.402H105.748V22.0996H102.277V39.4034H112.42V36.402Z" fill="#003D79"/>
<path d="M131.101 22.0996H117.204V25.1063H122.405V39.4034H125.89V25.1063H131.101V22.0996Z" fill="#003D79"/>
<path d="M151.205 39.4033H147.586L146.069 35.0748H139.773L138.256 39.4033H134.873L141.369 22.0425H144.863L151.205 39.4033ZM145.085 32.1718L142.928 26.0185L140.756 32.1718H145.085Z" fill="#003D79"/>
</g>
<defs>
<clipPath id="clip0">
<rect width="126.205" height="21.7153" fill="white" transform="translate(25 20)"/>
</clipPath>
</defs>
</svg>
