<svg width="175" height="62" viewBox="0 0 175 62" fill="none" xmlns="http://www.w3.org/2000/svg">
<g clip-path="url(#clip0)">
<path d="M81.6974 10.8086C83.8413 8.26843 86.8262 6.69307 90.1274 6.69307C94.5157 6.69307 98.3443 9.47552 100.383 13.6061C102.155 12.7059 104.116 12.2052 106.18 12.2052C114.095 12.2052 120.511 19.5652 120.511 28.6437C120.511 37.7233 114.095 45.0832 106.18 45.0832C105.214 45.0832 104.27 44.9734 103.357 44.7634C101.561 48.4051 98.1398 50.8656 94.2127 50.8656C92.5687 50.8656 91.0138 50.4338 89.6293 49.6661C87.8092 54.5343 83.5686 57.9478 78.6263 57.9478C73.4795 57.9478 69.093 54.2446 67.4093 49.0512C66.6735 49.2289 65.9112 49.3215 65.129 49.3215C59.0011 49.3215 54.0332 43.6144 54.0332 36.5732C54.0332 31.8547 56.2652 27.7349 59.5816 25.5306C58.8988 23.7442 58.5191 21.7726 58.5191 19.6998C58.5191 11.6022 64.3004 5.03802 71.4311 5.03802C75.6177 5.03802 79.3384 7.30146 81.6974 10.8086Z" fill="#00A1E0"/>
<path d="M63.6625 32.4755C63.6208 32.5994 63.6776 32.6252 63.6909 32.6467C63.8159 32.7501 63.9428 32.8244 64.0706 32.9073C64.7487 33.3165 65.3888 33.436 66.0583 33.436C67.422 33.436 68.2686 32.6112 68.2686 31.2835V31.2577C68.2686 30.0301 67.3131 29.5843 66.4163 29.2623L66.2998 29.2193C65.6237 28.9695 65.0403 28.7541 65.0403 28.248V28.2211C65.0403 27.7882 65.3813 27.4695 65.9097 27.4695C66.4968 27.4695 67.1938 27.6913 67.6426 27.9734C67.6426 27.9734 67.7743 28.0703 67.8226 27.925C67.8491 27.8474 68.0764 27.1518 68.1 27.0764C68.1256 26.9946 68.0802 26.9343 68.0337 26.902C67.5214 26.5477 66.8131 26.3055 66.0801 26.3055L65.9438 26.3065C64.6956 26.3065 63.8244 27.1637 63.8244 28.3923V28.4181C63.8244 29.7135 64.7856 30.1335 65.6862 30.4264L65.8311 30.477C66.4873 30.7063 67.0527 30.9034 67.0527 31.4289V31.4547C67.0527 31.935 66.6852 32.2925 66.0924 32.2925C65.8623 32.2925 65.1284 32.2871 64.3358 31.7175C64.2401 31.6539 64.1843 31.6076 64.1104 31.557C64.0716 31.529 63.974 31.4806 63.9314 31.627L63.6625 32.4755Z" fill="white"/>
<path d="M83.6254 32.4755C83.5837 32.5994 83.6405 32.6252 83.6538 32.6467C83.7788 32.7501 83.9057 32.8244 84.0335 32.9073C84.7116 33.3165 85.3517 33.436 86.0212 33.436C87.3849 33.436 88.2315 32.6112 88.2315 31.2835V31.2577C88.2315 30.0301 87.276 29.5843 86.3792 29.2623L86.2627 29.2193C85.5866 28.9695 85.0032 28.7541 85.0032 28.248V28.2211C85.0032 27.7882 85.3441 27.4695 85.8726 27.4695C86.4597 27.4695 87.1567 27.6913 87.6055 27.9734C87.6055 27.9734 87.7372 28.0703 87.7855 27.925C87.812 27.8474 88.0392 27.1518 88.0629 27.0764C88.0885 26.9946 88.043 26.9343 87.9966 26.902C87.4843 26.5477 86.776 26.3055 86.043 26.3055L85.9066 26.3065C84.6585 26.3065 83.7873 27.1637 83.7873 28.3923V28.4181C83.7873 29.7135 84.7485 30.1335 85.6491 30.4264L85.794 30.477C86.4502 30.7063 87.0165 30.9034 87.0165 31.4289V31.4547C87.0165 31.935 86.6481 32.2925 86.0553 32.2925C85.8252 32.2925 85.0913 32.2871 84.2987 31.7175C84.203 31.6539 84.1462 31.6098 84.0742 31.557C84.0496 31.5387 83.9341 31.4881 83.8943 31.627L83.6254 32.4755Z" fill="white"/>
<path d="M97.2538 29.8749C97.2538 30.6254 97.1307 31.2166 96.8883 31.6344C96.6487 32.0479 96.286 32.2493 95.7803 32.2493C95.2737 32.2493 94.9129 32.049 94.6771 31.6344C94.4385 31.2177 94.3173 30.6254 94.3173 29.8749C94.3173 29.1255 94.4385 28.5354 94.6771 28.1219C94.9129 27.7127 95.2737 27.5135 95.7803 27.5135C96.286 27.5135 96.6487 27.7127 96.8893 28.1219C97.1307 28.5354 97.2538 29.1255 97.2538 29.8749ZM98.3921 28.4837C98.2804 28.054 98.1061 27.675 97.8741 27.3595C97.6421 27.0429 97.3485 26.7888 97.0001 26.6036C96.6525 26.4195 96.2415 26.3258 95.7803 26.3258C95.3182 26.3258 94.9072 26.4195 94.5597 26.6036C94.2112 26.7888 93.9176 27.0429 93.6847 27.3595C93.4536 27.6761 93.2794 28.0551 93.1667 28.4837C93.0559 28.9112 93 29.3785 93 29.8749C93 30.3713 93.0559 30.8397 93.1667 31.2661C93.2794 31.6947 93.4527 32.0737 93.6856 32.3903C93.9176 32.7069 94.2121 32.96 94.5597 33.1398C94.9082 33.3196 95.3182 33.4111 95.7803 33.4111C96.2415 33.4111 96.6516 33.3196 97.0001 33.1398C97.3476 32.96 97.6421 32.7069 97.8741 32.3903C98.1061 32.0748 98.2804 31.6958 98.3921 31.2661C98.5039 30.8387 98.5597 30.3702 98.5597 29.8749C98.5597 29.3796 98.5039 28.9112 98.3921 28.4837Z" fill="white"/>
<path fill-rule="evenodd" clip-rule="evenodd" d="M107.739 32.0488C107.701 31.9228 107.594 31.9702 107.594 31.9702C107.428 32.0423 107.252 32.1091 107.065 32.1425C106.874 32.1759 106.665 32.1931 106.441 32.1931C105.89 32.1931 105.452 32.0068 105.139 31.6385C104.824 31.2703 104.648 30.6748 104.65 29.8693C104.652 29.136 104.807 28.5847 105.087 28.1648C105.364 27.747 105.786 27.5327 106.35 27.5327C106.82 27.5327 107.177 27.5941 107.552 27.7287C107.552 27.7287 107.642 27.7728 107.685 27.6393C107.784 27.3249 107.858 27.0998 107.964 26.7542C107.995 26.6562 107.921 26.6142 107.894 26.6023C107.747 26.5366 107.398 26.43 107.135 26.3848C106.889 26.3417 106.601 26.3191 106.281 26.3191C105.802 26.3191 105.376 26.4117 105.012 26.5969C104.648 26.7811 104.339 27.0352 104.095 27.3518C103.851 27.6684 103.665 28.0474 103.541 28.476C103.418 28.9034 103.355 29.3729 103.355 29.8693C103.355 30.9429 103.61 31.8108 104.113 32.4461C104.617 33.0836 105.373 33.4077 106.36 33.4077C106.944 33.4077 107.542 33.2731 107.972 33.0804C107.972 33.0804 108.054 33.0351 108.018 32.9264L107.739 32.0488Z" fill="white"/>
<path fill-rule="evenodd" clip-rule="evenodd" d="M109.73 29.156C109.784 28.7393 109.886 28.3925 110.042 28.1223C110.278 27.712 110.638 27.4869 111.143 27.4869C111.649 27.4869 111.983 27.7131 112.223 28.1223C112.382 28.3925 112.451 28.7543 112.479 29.156H109.73ZM113.563 28.2396C113.466 27.8251 113.227 27.4062 113.069 27.2145C112.821 26.9109 112.579 26.6987 112.338 26.5803C112.024 26.4274 111.647 26.3262 111.234 26.3262C110.753 26.3262 110.317 26.4177 109.962 26.6072C109.607 26.7967 109.309 27.0551 109.075 27.3771C108.841 27.698 108.665 28.0803 108.553 28.5142C108.441 28.946 108.384 29.4166 108.384 29.913C108.384 30.418 108.443 30.8886 108.559 31.3117C108.676 31.7382 108.864 32.114 109.118 32.4252C109.371 32.7385 109.696 32.984 110.086 33.1552C110.474 33.3254 110.944 33.4137 111.485 33.4126C112.598 33.4083 113.184 33.1262 113.426 32.9743C113.468 32.9474 113.509 32.9 113.458 32.7644L113.206 31.9621C113.168 31.8426 113.061 31.8868 113.061 31.8868C112.785 32.0031 112.393 32.212 111.479 32.2098C110.882 32.2087 110.439 32.0084 110.161 31.6951C109.876 31.3742 109.737 30.9026 109.712 30.2371L113.566 30.2414C113.566 30.2414 113.667 30.2393 113.677 30.1273C113.681 30.0799 113.81 29.2271 113.563 28.2396" fill="white"/>
<path fill-rule="evenodd" clip-rule="evenodd" d="M78.872 29.156C78.9269 28.7393 79.0273 28.3925 79.1836 28.1223C79.4194 27.712 79.7792 27.4869 80.2849 27.4869C80.7906 27.4869 81.1249 27.7131 81.3654 28.1223C81.5235 28.3925 81.5927 28.7543 81.6201 29.156H78.872ZM82.7035 28.2396C82.6069 27.8251 82.3683 27.4062 82.2111 27.2145C81.9629 26.9109 81.7205 26.6987 81.48 26.5803C81.1656 26.4274 80.7887 26.3262 80.3758 26.3262C79.8957 26.3262 79.4582 26.4177 79.104 26.6072C78.7489 26.7967 78.4506 27.0551 78.2167 27.3771C77.9828 27.698 77.8066 28.0803 77.6949 28.5142C77.5832 28.946 77.5254 29.4166 77.5254 29.913C77.5254 30.418 77.5841 30.8886 77.7006 31.3117C77.818 31.7382 78.0055 32.114 78.2593 32.4252C78.5121 32.7385 78.8379 32.984 79.2281 33.1552C79.6154 33.3254 80.086 33.4137 80.6268 33.4126C81.7395 33.4083 82.3256 33.1262 82.5671 32.9743C82.6097 32.9474 82.6505 32.9 82.5993 32.7644L82.3484 31.9621C82.3095 31.8426 82.2025 31.8868 82.2025 31.8868C81.927 32.0031 81.5359 32.212 80.6201 32.2098C80.0235 32.2087 79.5803 32.0084 79.3029 31.6951C79.0178 31.3742 78.8786 30.9026 78.854 30.2371L82.7073 30.2414C82.7073 30.2414 82.8086 30.2393 82.819 30.1273C82.8228 30.0799 82.9516 29.2271 82.7035 28.2396" fill="white"/>
<path d="M70.5432 32.0252C70.3927 31.8884 70.3718 31.854 70.3207 31.7657C70.2449 31.6311 70.2061 31.4394 70.2061 31.1961C70.2061 30.8106 70.3178 30.5338 70.5499 30.3475C70.547 30.3486 70.8813 30.0191 71.6673 30.031C72.2194 30.0396 72.7128 30.1322 72.7128 30.1322V32.1243H72.7137C72.7137 32.1243 72.2241 32.2438 71.673 32.2815C70.8889 32.3353 70.5404 32.0241 70.5432 32.0252ZM72.0764 28.9466C71.9201 28.9337 71.7175 28.9262 71.4751 28.9262C71.1446 28.9262 70.8254 28.9735 70.5262 29.0651C70.225 29.1566 69.9542 29.2998 69.7212 29.4893C69.4873 29.6799 69.2989 29.9233 69.1625 30.2119C69.0262 30.5004 68.957 30.8407 68.957 31.2219C68.957 31.6095 69.0157 31.9466 69.1332 32.2222C69.2506 32.499 69.4201 32.7294 69.636 32.9071C69.85 33.0848 70.1142 33.2151 70.4211 33.2937C70.7232 33.3723 71.066 33.4121 71.441 33.4121C71.8359 33.4121 72.2298 33.3755 72.6114 33.3012C72.9893 33.228 73.4533 33.1214 73.5821 33.088C73.7099 33.0535 73.852 33.0094 73.852 33.0094C73.9476 32.9825 73.94 32.8662 73.94 32.8662L73.9382 28.8594C73.9382 27.9807 73.7317 27.3293 73.3255 26.9255C72.9211 26.5227 72.3254 26.3192 71.5555 26.3192C71.2667 26.3192 70.8018 26.3644 70.5233 26.428C70.5233 26.428 69.6815 26.6132 69.3349 26.9212C69.3349 26.9212 69.2591 26.975 69.3008 27.0956L69.5735 27.929C69.6076 28.0367 69.6995 28.0001 69.6995 28.0001C69.6995 28.0001 69.7288 27.9872 69.7629 27.9646C70.5044 27.5059 71.4419 27.5199 71.4419 27.5199C71.8586 27.5199 72.1787 27.6146 72.3946 27.8031C72.6048 27.9861 72.7118 28.2628 72.7118 28.8465V29.0317C72.3804 28.9778 72.0764 28.9466 72.0764 28.9466Z" fill="white"/>
<path fill-rule="evenodd" clip-rule="evenodd" d="M103.154 26.6887C103.184 26.5896 103.122 26.5423 103.097 26.5315C103.031 26.5024 102.704 26.4238 102.451 26.4055C101.967 26.3721 101.698 26.4647 101.458 26.5875C101.219 26.7102 100.954 26.9084 100.806 27.1334V26.6004C100.806 26.5261 100.76 26.4669 100.695 26.4669H99.7075C99.6431 26.4669 99.5967 26.5261 99.5967 26.6004V33.1355C99.5967 33.2087 99.6497 33.269 99.7141 33.269H100.726C100.791 33.269 100.843 33.2087 100.843 33.1355V29.8707C100.843 29.4324 100.886 28.9952 100.971 28.7206C101.054 28.4493 101.168 28.2318 101.308 28.0756C101.449 27.9206 101.609 27.8118 101.784 27.7504C101.963 27.688 102.161 27.6675 102.301 27.6675C102.503 27.6675 102.725 27.7267 102.725 27.7267C102.798 27.7364 102.84 27.6848 102.865 27.6083C102.931 27.408 103.119 26.8082 103.154 26.6887Z" fill="white"/>
<path fill-rule="evenodd" clip-rule="evenodd" d="M93.6519 23.6598C93.5288 23.6168 93.417 23.5877 93.2712 23.5565C93.1235 23.5263 92.9473 23.5112 92.7475 23.5112C92.0506 23.5112 91.5013 23.7352 91.1159 24.1767C90.7324 24.616 90.4719 25.2847 90.3413 26.1645L90.2939 26.4606H89.4189C89.4189 26.4606 89.3128 26.4563 89.2901 26.5877L89.1471 27.4997C89.1367 27.5859 89.1698 27.6408 89.2721 27.6408H90.1234L89.2598 33.1239C89.1926 33.5653 89.1149 33.9282 89.0287 34.2039C88.9445 34.4752 88.8621 34.6788 88.7598 34.8274C88.6613 34.9695 88.5685 35.075 88.4075 35.1364C88.2749 35.187 88.1215 35.2107 87.9539 35.2107C87.8611 35.2107 87.7371 35.1935 87.6452 35.1719C87.5543 35.1515 87.506 35.1289 87.4369 35.0955C87.4369 35.0955 87.3374 35.0524 87.2977 35.1655C87.2664 35.2592 87.0391 35.9688 87.0117 36.056C86.9851 36.1432 87.023 36.211 87.0713 36.2315C87.185 36.2767 87.2692 36.3069 87.4236 36.3489C87.6376 36.4059 87.8185 36.4092 87.988 36.4092C88.3422 36.4092 88.666 36.3521 88.934 36.2423C89.203 36.1314 89.4378 35.9386 89.6462 35.678C89.8706 35.3959 90.0117 35.1009 90.1462 34.6971C90.2797 34.2986 90.3943 33.8033 90.4852 33.2262L91.3536 27.6408H92.6225C92.6225 27.6408 92.7295 27.6451 92.7513 27.5126L92.8953 26.6017C92.9047 26.5144 92.8725 26.4606 92.7693 26.4606H91.5373C91.5439 26.4294 91.5998 25.9362 91.7409 25.4721C91.8015 25.275 91.9151 25.1146 92.0108 25.0048C92.1055 24.8971 92.2144 24.8206 92.3337 24.7765C92.4559 24.7313 92.5951 24.7097 92.7475 24.7097C92.8631 24.7097 92.9776 24.7248 93.0638 24.7453C93.1831 24.7743 93.2295 24.7894 93.2608 24.8002C93.3867 24.8433 93.4038 24.8013 93.4284 24.7323L93.7229 23.8128C93.7532 23.7137 93.6784 23.6717 93.6519 23.6598Z" fill="white"/>
<path fill-rule="evenodd" clip-rule="evenodd" d="M76.4387 33.1361C76.4387 33.2093 76.3923 33.2686 76.3279 33.2686H75.3061C75.2417 33.2686 75.1963 33.2093 75.1963 33.1361V23.7852C75.1963 23.7119 75.2417 23.6527 75.3061 23.6527H76.3279C76.3923 23.6527 76.4387 23.7119 76.4387 23.7852V33.1361Z" fill="white"/>
</g>
<defs>
<clipPath id="clip0">
<rect width="66.5446" height="52.9854" fill="white" transform="translate(54 5)"/>
</clipPath>
</defs>
</svg>
