<svg width="175" height="62" viewBox="0 0 175 62" fill="none" xmlns="http://www.w3.org/2000/svg">
<g clip-path="url(#clip0)">
<path d="M70.3564 39.2153L71.5184 36.1146C72.8728 37.2023 74.5016 37.7742 76.1663 37.7465C77.4251 37.7465 78.1997 37.2025 78.1997 36.3866C78.1997 34.1018 70.7438 35.897 70.6953 30.1852C70.6953 27.3021 72.9709 25.0718 76.2147 25.0718C78.1513 25.0718 80.0879 25.6158 81.4435 26.8125L80.33 29.9676C79.0515 29.0105 77.5569 28.4822 76.021 28.4445C75.0043 28.4445 74.3265 28.9884 74.3265 29.6412C74.3265 31.8715 81.8308 30.6748 81.8792 36.1146C81.8792 39.0521 79.6522 41.1736 76.4568 41.1736C74.2924 41.2417 72.1621 40.5578 70.3564 39.2153" fill="black"/>
<path d="M115.818 34.9723C115.521 35.5652 115.09 36.0594 114.568 36.4052C114.046 36.7509 113.453 36.9358 112.847 36.9414C112.241 36.9469 111.645 36.7727 111.119 36.4365C110.592 36.1003 110.154 35.6139 109.848 35.0265C109.542 34.4391 109.38 33.7714 109.377 33.0909C109.374 32.4104 109.531 31.7411 109.833 31.1507C110.134 30.5603 110.568 30.0695 111.092 29.7281C111.616 29.3867 112.211 29.2066 112.817 29.2061C113.424 29.22 114.018 29.407 114.543 29.7495C115.068 30.0921 115.507 30.579 115.818 31.1644L119.062 29.1517C118.447 27.914 117.552 26.8809 116.467 26.1569C115.383 25.4329 114.147 25.0437 112.886 25.0288C111.624 25.0138 110.381 25.3736 109.283 26.0717C108.185 26.7698 107.271 27.7814 106.633 29.0042C105.995 30.227 105.656 31.6175 105.649 33.035C105.643 34.4525 105.971 35.8466 106.598 37.0762C107.226 38.3059 108.132 39.3274 109.224 40.0374C110.315 40.7473 111.555 41.1205 112.817 41.1192C114.094 41.132 115.35 40.7539 116.45 40.0256C117.55 39.2972 118.453 38.2461 119.062 36.985L115.818 34.9723Z" fill="black"/>
<path d="M87.6401 18.3799H83.5732V40.8463H87.6401V18.3799Z" fill="black"/>
<path d="M120.66 18.3799V40.8463H124.775V34.1009L129.617 40.8463H134.846L128.697 32.8498L134.41 25.3972H129.375L124.775 31.5986V18.3799H120.66Z" fill="black"/>
<path d="M99.841 35.0264C99.4953 35.6217 99.0208 36.1086 98.462 36.4416C97.9031 36.7746 97.2781 36.9427 96.6456 36.9303C95.734 36.9303 94.8596 36.5234 94.215 35.7991C93.5703 35.0748 93.2082 34.0924 93.2082 33.0681C93.2082 32.0438 93.5703 31.0614 94.215 30.3371C94.8596 29.6127 95.734 29.2058 96.6456 29.2058C97.2809 29.2097 97.9053 29.3907 98.463 29.7325C99.0207 30.0743 99.4942 30.5662 99.841 31.1642V35.0264ZM99.841 25.398V27.2475C99.1632 25.9963 97.5171 25.126 95.7742 25.126C92.1915 25.126 89.335 28.7162 89.335 33.1769C89.335 37.6375 92.143 41.2278 95.7742 41.2278C97.5171 41.2278 99.1632 40.3574 99.841 39.1063V40.9558H103.908V25.398H99.841Z" fill="black"/>
<path d="M45.084 35.0265C45.0866 35.3987 45.0232 35.7679 44.8976 36.1124C44.772 36.4569 44.5867 36.7699 44.3524 37.0331C44.1181 37.2963 43.8395 37.5046 43.5329 37.6457C43.2263 37.7869 42.8977 37.858 42.5664 37.8551C42.2358 37.8551 41.9084 37.782 41.603 37.6398C41.2975 37.4977 41.02 37.2893 40.7862 37.0266C40.5524 36.764 40.367 36.4521 40.2405 36.1089C40.1139 35.7658 40.0488 35.3979 40.0488 35.0265C40.0488 34.655 40.1139 34.2871 40.2405 33.944C40.367 33.6008 40.5524 33.2889 40.7862 33.0263C41.02 32.7636 41.2975 32.5552 41.603 32.4131C41.9084 32.2709 42.2358 32.1978 42.5664 32.1978H45.084V35.0265Z" fill="#E01E5A"/>
<path d="M46.3428 35.0265C46.3428 34.2762 46.608 33.5567 47.0802 33.0263C47.5523 32.4958 48.1927 32.1978 48.8604 32.1978C49.5281 32.1978 50.1684 32.4958 50.6406 33.0263C51.1127 33.5567 51.3779 34.2762 51.3779 35.0265V42.0982C51.3779 42.8484 51.1127 43.5679 50.6406 44.0984C50.1684 44.6289 49.5281 44.9269 48.8604 44.9269C48.1927 44.9269 47.5523 44.6289 47.0802 44.0984C46.608 43.5679 46.3428 42.8484 46.3428 42.0982V35.0265Z" fill="#E01E5A"/>
<path d="M48.8604 23.6574C48.5291 23.6603 48.2006 23.5891 47.894 23.448C47.5873 23.3068 47.3088 23.0986 47.0745 22.8353C46.8402 22.5721 46.6548 22.2591 46.5292 21.9146C46.4036 21.5701 46.3403 21.201 46.3428 20.8287C46.3428 20.0785 46.6081 19.359 47.0802 18.8285C47.5524 18.298 48.1927 18 48.8604 18C49.5281 18 50.1685 18.298 50.6406 18.8285C51.1128 19.359 51.378 20.0785 51.378 20.8287V23.6574H48.8604Z" fill="#36C5F0"/>
<path d="M48.86 25.0718C49.5277 25.0718 50.168 25.3698 50.6402 25.9003C51.1123 26.4308 51.3776 27.1503 51.3776 27.9005C51.3776 28.6507 51.1123 29.3702 50.6402 29.9007C50.168 30.4311 49.5277 30.7292 48.86 30.7292H42.5176C41.8499 30.7292 41.2095 30.4311 40.7374 29.9007C40.2652 29.3702 40 28.6507 40 27.9005C40 27.1503 40.2652 26.4308 40.7374 25.9003C41.2095 25.3698 41.8499 25.0718 42.5176 25.0718H48.86Z" fill="#36C5F0"/>
<path d="M58.9785 27.9005C58.9785 27.341 59.1262 26.7941 59.4028 26.3289C59.6794 25.8638 60.0726 25.5012 60.5327 25.2871C60.9927 25.073 61.4989 25.017 61.9873 25.1261C62.4756 25.2353 62.9242 25.5047 63.2763 25.9003C63.6284 26.2959 63.8682 26.7999 63.9653 27.3486C64.0625 27.8973 64.0126 28.4661 63.822 28.983C63.6315 29.4998 63.3088 29.9416 62.8948 30.2524C62.4808 30.5633 61.994 30.7292 61.4961 30.7292H58.9785V27.9005Z" fill="#2EB67D"/>
<path d="M57.7197 27.9004C57.7197 28.2719 57.6546 28.6397 57.5281 28.9829C57.4016 29.3261 57.2161 29.638 56.9824 29.9006C56.7486 30.1633 56.471 30.3717 56.1656 30.5138C55.8601 30.656 55.5328 30.7291 55.2022 30.7291C54.8715 30.7291 54.5442 30.656 54.2387 30.5138C53.9333 30.3717 53.6557 30.1633 53.422 29.9006C53.1882 29.638 53.0027 29.3261 52.8762 28.9829C52.7497 28.6397 52.6846 28.2719 52.6846 27.9004V20.8287C52.6846 20.4572 52.7497 20.0894 52.8762 19.7462C53.0027 19.403 53.1882 19.0912 53.422 18.8285C53.6557 18.5658 53.9333 18.3575 54.2387 18.2153C54.5442 18.0732 54.8715 18 55.2022 18C55.5328 18 55.8601 18.0732 56.1656 18.2153C56.471 18.3575 56.7486 18.5658 56.9824 18.8285C57.2161 19.0912 57.4016 19.403 57.5281 19.7462C57.6546 20.0894 57.7197 20.4572 57.7197 20.8287V27.9004Z" fill="#2EB67D"/>
<path d="M55.1543 39.2695C55.6522 39.2695 56.139 39.4354 56.553 39.7463C56.967 40.0571 57.2897 40.4989 57.4803 41.0157C57.6708 41.5326 57.7207 42.1014 57.6235 42.6501C57.5264 43.1988 57.2866 43.7028 56.9345 44.0984C56.5824 44.494 56.1338 44.7634 55.6455 44.8726C55.1571 44.9817 54.6509 44.9257 54.1909 44.7116C53.7308 44.4975 53.3376 44.1349 53.061 43.6698C52.7844 43.2046 52.6367 42.6577 52.6367 42.0982V39.2695H55.1543Z" fill="#ECB22E"/>
<path d="M55.1543 37.8551C54.4866 37.8551 53.8462 37.5571 53.3741 37.0266C52.902 36.4962 52.6367 35.7767 52.6367 35.0265C52.6367 34.2762 52.902 33.5567 53.3741 33.0263C53.8462 32.4958 54.4866 32.1978 55.1543 32.1978H61.4967C62.1644 32.1978 62.8048 32.4958 63.2769 33.0263C63.749 33.5567 64.0143 34.2762 64.0143 35.0265C64.0143 35.7767 63.749 36.4962 63.2769 37.0266C62.8048 37.5571 62.1644 37.8551 61.4967 37.8551H55.1543Z" fill="#ECB22E"/>
</g>
<defs>
<clipPath id="clip0">
<rect width="94.8452" height="26.927" fill="white" transform="translate(40 18)"/>
</clipPath>
</defs>
</svg>
