<svg width="175" height="62" viewBox="0 0 175 62" fill="none" xmlns="http://www.w3.org/2000/svg">
<path d="M52.6728 11.9915C52.6728 10.9271 52.4358 10.4614 51.725 10.4614H50.4811C50.3034 10.4614 50.2441 10.3949 50.2441 10.1953V9.46349C50.2441 9.26391 50.3034 9.19738 50.5403 9.19738C50.8365 9.19738 52.1397 9.26391 54.746 9.26391C57.0562 9.26391 58.3594 9.19738 58.7148 9.19738C58.8925 9.19738 58.9517 9.26391 58.9517 9.39696V10.1953C58.9517 10.3949 58.8925 10.4614 58.7148 10.4614H57.5893C56.76 10.4614 56.2861 10.9936 56.2269 11.6589C56.2269 12.058 56.1677 13.8543 56.1677 15.6505V19.509C56.1677 21.0391 56.1677 23.2345 56.2269 24.2324C56.2861 25.6295 56.5231 27.0931 57.1747 28.091C58.1224 29.488 59.6033 30.0202 60.9065 30.0202C62.1504 30.0202 63.6905 29.488 64.579 28.5567C65.6453 27.2927 66.1784 25.563 66.1784 23.301V17.7793C66.1784 15.3178 65.9415 12.5902 65.8822 11.8584C65.823 11.0601 65.3491 10.5279 64.7568 10.5279H63.809C63.6313 10.5279 63.572 10.4614 63.572 10.3283V9.53001C63.5128 9.33043 63.572 9.33043 63.809 9.33043C64.1052 9.33043 65.3491 9.39696 67.1854 9.39696C68.844 9.33043 69.7325 9.33043 69.9102 9.33043C70.1471 9.33043 70.2064 9.39696 70.2064 9.59654V10.3283C70.2064 10.5279 70.2064 10.5944 70.0287 10.5944H69.0217C68.0147 10.5944 67.8962 11.4593 67.8962 11.7919C67.837 12.1911 67.837 16.5153 67.837 16.9145C67.8962 17.3136 67.837 22.6358 67.6593 23.9663C67.4816 26.4943 66.83 28.4236 65.3491 29.8872C64.2236 31.0847 62.4466 31.8165 60.3733 31.8165C59.0702 31.8165 57.4708 31.5504 56.4046 31.0847C54.8052 30.3529 53.739 28.9558 53.1467 26.96C52.732 25.6295 52.6728 23.5672 52.6728 19.509V11.9915ZM71.0357 24.2989C71.1541 24.2989 71.2134 24.3655 71.2134 24.5651C71.2134 25.563 71.5096 26.6274 72.2204 28.0244C73.0497 29.488 74.4713 30.2198 75.8337 30.2198C77.3146 30.2198 79.3878 29.1554 79.3878 26.6274C79.3878 23.7667 78.2624 22.8354 75.3006 21.6379C74.4713 21.3052 72.6943 20.3739 71.3319 19.0433C70.3249 18.0454 69.9102 16.5153 69.9102 14.6526C69.9102 12.9229 70.5026 11.5258 71.8057 10.3283C72.9312 9.26391 74.1159 8.86475 75.7153 8.86475C77.5515 8.86475 78.6178 9.33043 79.1509 9.59654C79.4471 9.7296 79.5655 9.66307 79.7432 9.53001L80.0987 9.13085C80.2171 8.9978 80.3356 8.93127 80.4541 8.93127C80.6318 8.93127 80.691 9.13085 80.691 9.39696C80.691 9.86265 81.1056 14.1869 81.1056 14.5195C81.1056 14.6526 81.0464 14.7191 80.9279 14.7191L80.5133 14.8522C80.3948 14.8522 80.2764 14.8522 80.2171 14.6526C79.9209 13.7877 79.5063 12.5237 78.4993 11.3928C77.7885 10.5279 76.9 10.1288 75.656 10.1288C73.4643 10.1288 72.5758 12.1246 72.5758 13.2555C72.5758 14.3199 72.6943 15.2513 73.3458 16.0496C74.0567 16.848 75.5968 17.5797 76.7223 17.9789C78.3216 18.5111 79.6248 19.1764 80.691 20.3739C81.5795 21.4383 82.0534 22.7023 82.0534 24.7646C82.0534 28.5567 79.8617 31.6169 76.2484 31.6169C73.9974 31.6169 72.6943 31.0847 71.5688 30.1533C71.2134 29.9537 71.0949 29.8207 70.9172 29.8207C70.7395 29.8207 70.621 30.0868 70.5026 30.3529C70.3249 30.619 70.2064 30.752 70.0287 30.752C69.851 30.752 69.7325 30.4859 69.7325 30.2864C69.7917 29.8872 70.1471 24.8977 70.2064 24.5651C70.2064 24.3655 70.2656 24.2989 70.3841 24.2989H71.0357ZM101.009 26.0952C101.068 26.1617 101.127 26.2948 101.068 26.4278C99.4093 29.0889 96.803 31.6169 92.8934 31.6169C89.3986 31.6169 87.3846 30.4194 85.6668 28.6897C83.6528 26.6274 82.705 23.1015 82.705 20.3739C82.705 17.3802 83.5935 14.453 85.4891 12.1246C86.9699 10.3283 89.3393 8.86475 92.6565 8.86475C95.2036 8.86475 97.2176 9.72959 98.2246 10.3283C98.58 10.5944 98.6985 10.5944 98.7577 10.3283L98.9947 9.53001C99.0539 9.33043 99.1131 9.33043 99.4093 9.33043C99.7647 9.33043 99.7647 9.39696 99.7647 9.79612C99.7647 10.3283 100.298 15.3178 100.416 16.2492C100.416 16.4488 100.416 16.5153 100.298 16.5818L99.7647 16.7814C99.6462 16.848 99.5278 16.7149 99.4685 16.4488C99.1131 15.3178 98.4615 13.7877 97.3361 12.4572C96.1514 11.1932 94.6705 10.1953 92.538 10.1953C88.1546 10.1953 86.3183 14.6526 86.3183 19.1764C86.3183 21.1057 86.7922 24.6981 88.8655 27.2261C90.7017 29.355 92.3011 29.6211 93.6043 29.6211C96.6253 29.6211 98.9947 27.8914 100.179 26.0286C100.298 25.8291 100.416 25.696 100.535 25.8291L101.009 26.0952Z" fill="#A32035"/>
<path d="M54.2717 41.9284C53.5609 41.5958 53.2055 41.1301 53.087 40.3983C52.9686 39.8661 52.9093 39.1343 52.9093 37.6042V34.8766C52.9093 34.4774 52.8501 34.2778 52.4947 34.2778H51.9616C51.9023 34.2778 51.9023 34.2778 51.9023 34.1448V33.9452C51.9023 33.8787 51.9023 33.8787 52.0208 33.8787C52.1393 33.8787 52.6132 33.9452 53.4425 33.9452C54.2125 33.9452 54.7456 33.8787 54.8641 33.8787C54.9233 33.8787 54.9826 33.8787 54.9826 33.9452V34.2113C54.9826 34.2778 54.9826 34.2778 54.9233 34.2778H54.3902C54.094 34.2778 53.9163 34.4774 53.9163 34.7435C53.9163 34.8766 53.9163 35.6749 53.9163 36.2071V36.9389C53.9163 37.5376 53.9756 39.0012 53.9756 39.3339C53.9756 39.8661 54.094 40.3983 54.331 40.7974C54.6864 41.3962 55.338 41.5958 55.9303 41.5958C56.5227 41.5958 57.115 41.3962 57.4704 40.997C57.8851 40.5313 58.0036 39.7995 58.0036 39.0012V36.5397C58.0036 35.6749 58.0036 35.0096 57.9443 34.7435C57.8851 34.4774 57.7666 34.2113 57.4704 34.2113H56.8189C56.7596 34.2113 56.7596 34.1448 56.7596 34.1448V33.8787C56.7596 33.8121 56.7596 33.8121 56.8189 33.8121C56.9373 33.8121 57.4112 33.8787 58.0628 33.8787C58.7736 33.8787 59.0698 33.8121 59.1883 33.8121C59.3067 33.8121 59.3067 33.8787 59.3067 33.8787V34.1448C59.3067 34.2113 59.3067 34.2778 59.2475 34.2778H58.8329C58.4774 34.2778 58.4774 34.6105 58.4774 34.7435C58.4774 34.8766 58.4774 36.4732 58.4774 36.6728C58.4774 36.8058 58.4774 38.8016 58.4182 39.2673C58.359 40.1987 58.122 40.9305 57.5889 41.4627C57.1743 41.8619 56.5819 42.128 55.6934 42.128C55.0418 42.128 54.5679 42.0614 54.2717 41.9284ZM62.9201 41.3962C62.9201 41.5958 63.0385 41.6623 63.157 41.6623H63.4532C63.5717 41.6623 63.5717 41.7288 63.5717 41.7953V41.9284C63.5717 41.9949 63.5717 42.0614 63.5124 42.0614C63.4532 42.0614 63.0978 41.9949 62.5647 41.9949C62.0316 41.9949 61.7354 42.0614 61.6761 42.0614C61.6169 42.0614 61.6169 41.9949 61.6169 41.9284V41.7953C61.6169 41.7288 61.6761 41.6623 61.7354 41.6623H62.0316C62.15 41.6623 62.2093 41.5958 62.2093 41.3962C62.2093 41.1301 62.2093 40.7309 62.2093 40.4648V38.9347C62.2093 38.469 62.2093 38.1364 61.9131 37.9368C61.6761 37.7372 61.4392 37.7372 61.143 37.7372C60.9653 37.7372 60.6099 37.8037 60.3137 38.2029C60.136 38.469 60.0768 38.7351 60.0768 39.0012V41.3962C60.0768 41.7288 60.136 41.7953 60.3137 41.7953H60.5507C60.6099 41.7953 60.6691 41.8619 60.6691 41.9284V42.128C60.6691 42.1945 60.6691 42.261 60.6099 42.261C60.5507 42.261 60.2545 42.1945 59.7214 42.1945C59.1883 42.1945 58.8921 42.261 58.8329 42.261C58.7736 42.261 58.7736 42.1945 58.7736 42.128V41.7953C58.7736 41.7288 58.7736 41.6623 58.8921 41.6623H59.1883C59.3067 41.6623 59.366 41.5958 59.366 41.4627V38.8016C59.366 38.469 59.1883 38.2694 58.9513 38.1364L58.8921 38.0698C58.8329 37.9368 58.8329 37.9368 58.8329 37.9368V37.8703C58.8329 37.8037 58.8921 37.8037 58.9513 37.7372L59.8399 37.205C59.8991 37.1385 59.9583 37.1385 60.0176 37.1385C60.0768 37.1385 60.0768 37.205 60.0768 37.2715L60.136 37.9368C60.4322 37.5376 61.0246 37.0719 61.5577 37.0719C61.8538 37.0719 62.15 37.1385 62.4462 37.338C62.7424 37.5376 62.9793 38.1364 62.9793 38.4025V41.3962H62.9201V41.3962ZM64.164 35.1427C64.164 34.9431 64.401 34.6105 64.7564 34.6105C65.1118 34.6105 65.2895 34.9431 65.2895 35.1427C65.2895 35.4088 65.1118 35.7414 64.6971 35.7414C64.5194 35.8079 64.164 35.6084 64.164 35.1427ZM64.6971 38.7351C64.6971 38.336 64.6379 38.1364 64.1048 38.0698C64.0455 38.0698 63.9271 37.9368 63.9271 37.9368V37.8037C63.9271 37.7372 63.9271 37.7372 63.9863 37.7372C64.3417 37.6042 64.6971 37.4046 65.1118 37.2715C65.171 37.205 65.2302 37.205 65.2895 37.205C65.3487 37.1385 65.3487 37.2715 65.3487 37.2715C65.3487 37.4711 65.3487 38.2029 65.3487 39.1343V40.3983C65.3487 40.864 65.3487 41.2631 65.3487 41.3962C65.3487 41.5958 65.408 41.6623 65.5264 41.6623H66.0003C66.0595 41.6623 66.1188 41.6623 66.1188 41.7953V41.9949C66.1188 42.0614 66.1188 42.128 66.0003 42.128C65.9411 42.128 65.4672 42.0614 65.0525 42.0614C64.4602 42.0614 64.0455 42.128 63.9271 42.128C63.8678 42.128 63.8678 42.128 63.8678 42.0614V41.9284C63.8678 41.8619 63.9271 41.8619 63.9863 41.8619H64.4602C64.5787 41.8619 64.6379 41.7953 64.6379 41.6623C64.6379 41.3297 64.6379 40.997 64.6379 40.5979V38.7351H64.6971ZM68.2512 40.9305C68.4882 40.4648 69.1398 38.6021 69.2582 38.0698C69.3175 37.7372 69.2582 37.6042 69.0805 37.6042H68.9028C68.8436 37.6042 68.8436 37.5376 68.8436 37.4711V37.2715C68.8436 37.2715 68.8436 37.2715 68.9621 37.2715C69.0213 37.2715 69.2582 37.2715 69.7321 37.2715C70.1468 37.2715 70.3837 37.2715 70.4429 37.2715C70.5022 37.2715 70.5614 37.2715 70.5614 37.4046V37.6042C70.5614 37.6707 70.5614 37.7372 70.5022 37.7372H70.3245C70.206 37.7372 70.0875 37.7372 70.0283 37.8703C69.8506 37.9368 69.4359 39.2673 69.2582 39.6C69.1398 39.9326 68.3105 41.9284 68.3105 41.9284C68.2512 42.0614 68.192 42.1945 68.0735 42.1945C67.9551 42.1945 67.9551 42.0614 67.8958 41.9284C67.8958 41.8619 67.1258 39.733 67.1258 39.6C67.0665 39.5334 66.6519 38.2029 66.5927 38.0033C66.4742 37.7372 66.2965 37.6042 66.178 37.6042H66.0003C65.9411 37.6042 65.9411 37.5376 65.9411 37.4711V37.2715C65.8818 37.2715 65.8818 37.2715 66.0595 37.2715C66.2372 37.2715 66.3557 37.2715 66.8888 37.2715C67.422 37.2715 67.7181 37.2715 67.7774 37.2715C67.8366 37.2715 67.8958 37.2715 67.8958 37.2715V37.4711C67.8958 37.5376 67.8958 37.6042 67.8366 37.6042H67.5404C67.3627 37.6042 67.3627 37.7372 67.3627 37.8037C67.3627 38.0033 67.5997 38.9347 67.6589 39.1343C67.6589 39.4004 68.192 40.7309 68.2512 40.9305ZM72.6939 38.6021C72.8123 38.6021 72.9901 38.6021 72.9901 38.469C72.9901 38.2029 72.8716 37.4711 72.22 37.4711C71.7461 37.4711 71.3315 37.8037 71.1538 38.6686H72.6939V38.6021ZM71.0353 38.9347C71.0353 39.1343 70.9168 39.2673 70.9168 39.4669C70.9168 40.5979 71.5684 41.4627 72.3385 41.4627C72.9308 41.4627 73.4047 41.0635 73.5824 40.6644C73.5824 40.5979 73.7009 40.5979 73.7601 40.5979L73.8786 40.7309C73.8786 40.7309 73.8786 40.7309 73.8786 40.9305C73.7009 41.3962 73.1678 42.128 72.22 42.128C71.6276 42.128 70.9761 41.9284 70.6206 41.3297C70.3245 40.7309 70.206 40.3983 70.206 39.6C70.206 39.1343 70.3245 38.4025 70.8576 37.8037C71.213 37.2715 71.8054 37.1385 72.2792 37.1385C73.4639 37.1385 73.7601 38.4025 73.7601 38.8016C73.7601 38.9347 73.6416 39.0012 73.4639 39.0012H71.0353V38.9347ZM74.6486 38.9347C74.6486 38.336 74.5894 38.2694 74.2932 38.0698L74.1748 37.9368C74.0563 37.9368 74.0563 37.9368 74.0563 37.9368V37.8703C74.0563 37.8037 74.0563 37.8037 74.1155 37.7372L75.1225 37.1385C75.1818 37.0719 75.241 37.0719 75.241 37.0719C75.3002 37.0719 75.3002 37.1385 75.3002 37.205L75.3595 37.9368H75.4187C75.7149 37.4046 76.1887 36.9389 76.6626 36.9389C77.018 36.9389 77.1957 37.205 77.1957 37.4711C77.1957 37.8037 76.9588 38.0033 76.7811 38.0033C76.6626 38.0033 76.5442 37.9368 76.4849 37.9368C76.4257 37.9368 76.3665 37.9368 76.1295 37.9368C75.9518 37.9368 75.7149 38.0698 75.5372 38.4025C75.4779 38.5355 75.4187 38.7351 75.4187 38.7351V41.1301C75.4187 41.4627 75.4779 41.5958 75.7149 41.5958H76.248C76.248 41.5958 76.248 41.5958 76.248 41.7288V41.9284V42.0614C76.1295 42.0614 75.6556 41.9284 75.1818 41.9284C74.4709 41.9284 74.0563 42.0614 73.997 42.0614C73.9378 42.0614 73.997 42.0614 73.997 41.9284V41.7953C73.997 41.7288 73.9971 41.6623 74.1155 41.6623H74.4709C74.6486 41.6623 74.7079 41.5958 74.7079 41.4627C74.7079 41.0635 74.7079 40.6644 74.7079 40.0656V39.0012H74.6486V38.9347ZM77.3142 41.7953C77.255 41.7288 77.255 41.6623 77.255 41.6623L77.1365 40.5979C77.1365 40.5313 77.1365 40.5313 77.1957 40.5313L77.3142 40.4648C77.3735 40.4648 77.3735 40.4648 77.4327 40.5313L77.6696 41.0635C77.8473 41.4627 78.025 41.7953 78.5582 41.7953C78.9136 41.7953 79.3874 41.5292 79.3874 40.997C79.3874 40.4648 79.1505 40.1987 78.3805 39.9326C77.7881 39.733 77.1957 39.4004 77.1957 38.469C77.1957 37.6707 77.8473 37.0719 78.6174 37.0719C79.0913 37.0719 79.3874 37.205 79.5652 37.338C79.7429 37.4046 79.7429 37.4711 79.7429 37.5376L79.9206 38.336C79.9206 38.4025 79.9206 38.4025 79.8613 38.469L79.6836 38.6021C79.6244 38.6021 79.6244 38.6021 79.5652 38.5355L79.2097 37.9368C79.0913 37.7372 78.9136 37.4711 78.4989 37.4711C78.0843 37.4711 77.7289 37.7372 77.7289 38.2029C77.7289 38.8682 78.2027 39.0012 78.6766 39.1343C79.4467 39.4004 79.8613 39.733 79.9206 40.5979C79.9206 41.5292 79.2097 42.128 78.3805 42.128C77.9066 42.128 77.4327 41.9284 77.3142 41.7953ZM80.5129 35.1427C80.5129 34.8766 80.7499 34.5439 81.1053 34.5439C81.4607 34.6105 81.5791 34.9431 81.5791 35.1427C81.5791 35.4088 81.4014 35.7414 80.9868 35.7414C80.8683 35.8079 80.5129 35.6084 80.5129 35.1427ZM80.9868 38.7351C80.9868 38.336 80.9276 38.1364 80.3944 38.0698C80.3352 38.0698 80.276 38.0033 80.276 38.0033V37.8703C80.276 37.8037 80.276 37.8037 80.3352 37.8037C80.5722 37.6042 80.9868 37.4046 81.4607 37.2715C81.4607 37.1385 81.5791 37.1385 81.5791 37.1385C81.6384 37.1385 81.6384 37.205 81.6384 37.2715C81.6384 37.4711 81.6384 38.2029 81.6384 39.1343V40.3983C81.6384 40.864 81.6384 41.2631 81.6384 41.3962C81.6384 41.5958 81.6976 41.6623 81.8161 41.6623H82.29C82.3492 41.6623 82.4084 41.6623 82.4084 41.7953V41.9949C82.4084 42.0614 82.4084 42.128 82.29 42.128C82.2307 42.128 81.7569 42.0614 81.3422 42.0614C80.7499 42.0614 80.3352 42.128 80.2167 42.128C80.1575 42.128 80.1575 42.128 80.1575 42.0614V41.9284C80.1575 41.8619 80.2167 41.8619 80.276 41.8619H80.7499C80.8683 41.8619 80.9276 41.7953 80.9276 41.6623C80.9276 41.3297 80.9276 40.997 80.9276 40.5979V38.7351H80.9868ZM83.7708 40.5979C83.7708 41.4627 84.1263 41.5958 84.304 41.5958C84.5409 41.5958 84.8371 41.5292 84.9556 41.4627C85.0148 41.3962 85.074 41.4627 85.074 41.4627L85.1333 41.5958C85.1925 41.6623 85.1333 41.6623 85.1333 41.7288C85.0148 41.7953 84.5409 42.128 83.9486 42.128C83.4747 42.128 82.9416 41.5958 82.9416 41.1301C82.9416 40.6644 83.0008 39.6665 83.0008 39.4669V39.2673C83.0008 39.0677 83.0008 38.2694 83.0008 37.8037H82.4084C82.29 37.8037 82.2307 37.7372 82.2307 37.6707C82.2307 37.6042 82.29 37.5376 82.4084 37.4711C82.6454 37.338 83.4154 36.4067 83.5931 36.0075C83.6524 35.941 83.6524 35.8745 83.7116 35.8745C83.7708 35.8745 83.8301 35.941 83.8301 36.074L83.7708 37.205H85.1925C85.2517 37.205 85.311 37.2715 85.2517 37.338L85.1333 37.7372C85.1333 37.8037 85.074 37.8037 85.0148 37.8037H83.7116C83.7116 38.336 83.6524 38.8682 83.6524 39.4004V40.5979H83.7708ZM85.6071 44.5895C85.6071 44.3234 85.8441 44.1238 86.081 44.1238C86.2587 44.1238 86.4364 44.2568 86.5549 44.2568C86.6141 44.2568 86.7326 44.2568 86.7918 44.1903C86.9103 43.9242 87.3842 42.5937 87.6211 42.261C87.5619 41.9949 86.4957 38.4025 86.4364 38.2029C86.318 37.9368 86.1995 37.7372 85.9033 37.7372H85.7256C85.6664 37.7372 85.6664 37.6707 85.6664 37.6042V37.4046C85.6071 37.2715 85.6071 37.2715 85.7256 37.2715C85.8441 37.2715 86.081 37.338 86.6734 37.338C87.2065 37.4046 87.5027 37.2715 87.6211 37.2715C87.6804 37.2715 87.7396 37.338 87.7396 37.338V37.6042C87.7396 37.6707 87.7396 37.6707 87.6804 37.6707H87.5027C87.3842 37.6707 87.325 37.7372 87.3842 37.9368C87.4434 38.2029 88.095 40.7309 88.2135 40.9305H88.2727C88.3912 40.7309 89.2797 38.4025 89.3389 38.0698C89.3982 37.8037 89.339 37.6042 89.1612 37.6042H88.9835C88.9243 37.6042 88.9243 37.5376 88.9243 37.5376V37.338C88.9243 37.2715 88.9243 37.2715 88.9835 37.2715C89.102 37.2715 89.339 37.338 89.8128 37.338C90.109 37.338 90.3459 37.2715 90.4052 37.2715C90.4644 37.2715 90.4644 37.338 90.4644 37.338V37.5376C90.4644 37.6042 90.4644 37.6707 90.4052 37.6707H90.0498C89.9313 37.6707 89.8128 37.7372 89.6944 37.8703C89.4574 38.2029 88.8058 39.9326 88.095 41.7288C87.6211 42.9928 87.2065 44.0572 87.0288 44.4564C86.9103 44.7225 86.7326 45.2547 86.1403 45.2547C85.7256 45.1217 85.6071 44.9221 85.6071 44.5895ZM94.8478 39.4669C94.8478 38.2029 94.0185 37.4046 93.4854 37.4046C93.1892 37.4046 92.9523 37.4711 92.7154 37.7372C92.3007 38.2029 92.1822 38.6686 92.1822 39.5334C92.1822 40.1987 92.2415 40.5979 92.5969 41.1301C92.8338 41.5292 93.13 41.7288 93.6039 41.7288C94.3739 41.7953 94.8478 40.7309 94.8478 39.4669ZM91.8861 41.3962C91.4122 40.7974 91.3529 40.3318 91.3529 39.5334C91.3529 38.9347 91.6491 38.2029 92.2415 37.6707C92.7746 37.205 93.2485 37.1385 93.6039 37.1385C94.137 37.1385 94.7294 37.4711 95.0255 37.8037C95.4994 38.336 95.7363 38.9347 95.7363 39.6665C95.7363 40.9305 94.7293 42.1945 93.4854 42.1945C92.9523 42.128 92.3599 41.9284 91.8861 41.3962ZM96.8026 37.8037H96.0918C96.0325 37.8037 96.0325 37.8037 96.0325 37.6707V37.2715C96.0325 37.2715 96.151 37.2715 96.2102 37.2715H96.8026V37.0719C96.8026 35.941 97.0988 35.2092 97.4542 34.677C97.9873 34.0117 98.5796 33.7456 99.1127 33.7456C99.5866 33.7456 100.061 33.9452 100.061 34.4109C100.061 34.677 99.8236 34.8766 99.6459 34.8766C99.5274 34.8766 99.4682 34.8766 99.3497 34.81C99.2312 34.7435 99.172 34.6105 99.1127 34.5439C98.9943 34.3443 98.8166 34.2778 98.6389 34.2778C98.4019 34.2778 98.1058 34.3443 97.8688 34.677C97.5134 35.2092 97.5134 36.2071 97.5134 37.0054V37.205H98.7573C98.8166 37.205 98.8166 37.2715 98.8166 37.338L98.7573 37.7372C98.7573 37.8037 98.6981 37.8037 98.6389 37.8037H97.5134V38.8016C97.5134 40.1322 97.5134 41.1966 97.5134 41.3297C97.5134 41.5292 97.5726 41.5958 97.7503 41.5958H98.3427C98.4612 41.5958 98.4612 41.5958 98.4612 41.6623V41.8619C98.4612 41.9284 98.4612 41.9949 98.4019 41.9949C98.3427 41.9949 97.9873 41.9284 97.0988 41.9284C96.5656 41.9284 96.0325 41.9949 95.9141 41.9949C95.8548 41.9949 95.8548 41.9949 95.8548 41.9284V41.5958C95.8548 41.5292 95.8548 41.5292 95.9733 41.5292H96.4472C96.6249 41.5292 96.6841 41.3962 96.6841 41.1301V39.0677L96.8026 37.8037ZM53.1463 52.3066C53.0278 52.1735 52.9686 52.1735 52.9093 52.1735C52.8501 52.1735 52.7909 52.24 52.7316 52.3731C52.6724 52.5061 52.6132 52.5061 52.5539 52.5061C52.4947 52.5061 52.4355 52.4396 52.4355 52.3066C52.4947 52.0405 52.5539 50.5769 52.6132 50.2442C52.6132 50.1777 52.6724 50.1777 52.6724 50.1777H52.8501C52.9093 50.1777 52.9093 50.1777 52.9093 50.2442C52.9093 50.5769 52.9686 50.976 53.2648 51.5748C53.5609 52.107 54.1533 52.4396 54.6864 52.4396C55.2787 52.4396 56.0488 52.0405 56.0488 50.976C56.0488 49.7785 55.2787 49.3794 54.5087 49.0468C54.2125 48.9137 53.4425 48.6476 53.0278 48.1154C52.6724 47.7162 52.4947 47.184 52.4947 46.4522C52.4947 45.8535 52.7909 45.3213 53.1463 44.9886C53.5017 44.5895 54.0348 44.4564 54.5679 44.4564C55.1603 44.4564 55.5749 44.656 55.7526 44.7225C55.8711 44.789 55.8711 44.789 55.9303 44.7225L56.108 44.5895C56.1673 44.5229 56.1673 44.5229 56.2265 44.5229C56.2857 44.5229 56.2857 44.5895 56.2857 44.7225C56.2857 45.1217 56.4042 46.3192 56.4042 46.5187C56.4042 46.5853 56.4042 46.5853 56.345 46.5853L56.2265 46.6518C56.108 46.5853 56.108 46.5853 56.108 46.5853C56.108 46.2526 55.8711 45.7869 55.5157 45.2547C55.2195 44.9221 54.8641 44.789 54.3902 44.789C53.5017 44.789 53.1463 45.5208 53.1463 46.1196C53.1463 46.4522 53.2055 46.7848 53.4425 47.1175C53.7386 47.4501 54.331 47.7162 54.6272 47.7827C55.338 48.0489 55.8711 48.2484 56.2857 48.7141C56.5227 49.0468 56.7596 49.5124 56.7596 50.2442C56.7596 51.5748 56.0488 52.7723 54.6864 52.7723C54.0348 52.8388 53.6202 52.7057 53.1463 52.3066ZM60.8468 50.2442C60.8468 48.9802 60.0176 48.1819 59.4844 48.1819C59.1883 48.1819 58.9513 48.2484 58.7144 48.5145C58.2997 48.9802 58.1813 49.4459 58.1813 50.3108C58.1813 50.976 58.2405 51.3752 58.5959 51.9074C58.8329 52.3066 59.129 52.5061 59.6029 52.5061C60.3137 52.5061 60.8468 51.4417 60.8468 50.2442ZM57.8851 52.0405C57.4112 51.4417 57.352 50.976 57.352 50.1777C57.352 49.579 57.6482 48.8472 58.2405 48.315C58.7736 47.8493 59.2475 47.7827 59.6029 47.7827C60.136 47.7827 60.7284 48.1154 61.0246 48.448C61.4984 48.9802 61.7354 49.579 61.7354 50.3108C61.7354 51.5748 60.7284 52.8388 59.4844 52.8388C59.0106 52.8388 58.359 52.7057 57.8851 52.0405ZM65.7041 50.4438C65.7041 50.976 65.7041 51.5748 65.7041 51.7743C65.7634 52.107 65.8226 52.1735 65.9411 52.1735C66.0003 52.1735 66.178 52.1735 66.2965 52.107C66.3557 52.107 66.415 52.107 66.415 52.1735L66.4742 52.3066C66.4742 52.3731 66.4742 52.3731 66.415 52.4396L65.3487 52.8388C65.2895 52.8388 65.2303 52.9053 65.171 52.9053C65.1118 52.9053 65.1118 52.9053 65.0525 52.7723L64.9933 52.107C64.6971 52.5727 64.1048 52.9053 63.6309 52.9053C63.3347 52.9053 63.0386 52.8388 62.6831 52.3731C62.2685 51.7744 62.2685 51.3752 62.2685 50.1112V48.7806C62.2685 48.448 62.0908 48.3815 61.8538 48.315C61.6761 48.315 61.6169 48.315 61.6169 48.2484V48.0489C61.6169 47.9823 61.6169 47.9823 61.7354 47.9823H62.6239C62.6831 47.9823 62.7424 47.9823 62.7424 47.9823C62.8016 47.9823 62.8016 47.9823 62.8608 47.9823C62.9201 47.9823 62.9793 48.0489 62.9793 48.1154C62.9793 48.2484 62.9201 48.7806 62.9201 49.4459V50.2442C62.9201 50.7099 62.8016 51.4417 63.157 51.9739C63.394 52.3731 63.6901 52.4396 63.9863 52.4396C64.2825 52.4396 64.6971 52.1735 64.8748 51.8409C64.9933 51.7744 64.9933 51.6413 64.9933 51.4417V48.7141C64.9933 48.3815 64.8156 48.315 64.5787 48.315C64.401 48.315 64.3417 48.315 64.3417 48.2484V48.0489C64.3417 47.9823 64.3417 47.9158 64.4602 47.9158H65.408C65.4672 47.9158 65.5264 47.9158 65.5857 47.9158C65.6449 47.9158 65.7041 47.9158 65.7041 47.9158C65.7634 47.9158 65.8226 47.9823 65.8226 48.0489C65.8226 48.1819 65.7634 48.448 65.7634 49.579V50.3773H65.7041V50.4438ZM67.6589 51.3087C67.6589 52.1735 68.0143 52.3066 68.192 52.3066C68.4289 52.3066 68.7251 52.24 68.8436 52.1735C68.9028 52.107 68.9621 52.1735 68.9621 52.1735L69.0213 52.3066C69.0805 52.3731 69.0213 52.3731 69.0213 52.4396C68.9028 52.5727 68.4882 52.9053 67.8958 52.9053C67.4219 52.9053 66.8888 52.3731 66.8888 51.9074C66.8888 51.4417 66.9481 50.4438 66.9481 50.2442V49.9116C66.9481 49.712 66.9481 48.9137 66.9481 48.448H66.3557C66.178 48.448 66.178 48.448 66.178 48.3815C66.178 48.315 66.2372 48.2484 66.3557 48.1819C66.5927 48.0489 67.3627 47.1175 67.5404 46.7183C67.5997 46.5853 67.5997 46.5853 67.6589 46.5853C67.7181 46.5853 67.7774 46.6518 67.7774 46.7848L67.6589 47.9158H69.1398C69.1398 47.9158 69.2582 47.9158 69.1398 48.0489L69.0213 48.448C69.0213 48.5145 68.9621 48.5145 68.9028 48.5145H67.5997C67.5997 49.0468 67.5404 49.579 67.5404 50.1112V51.3087H67.6589V51.3087ZM69.9098 46.4522C69.9098 45.7869 69.7914 45.6539 69.4359 45.5208L69.2582 45.4543C69.199 45.4543 69.199 45.3878 69.199 45.3878V45.2547C69.2582 45.2547 69.2582 45.2547 69.3175 45.1217L70.4429 44.5895C70.5022 44.5229 70.6206 44.5229 70.6799 44.5229C70.7391 44.5229 70.7984 44.5895 70.7391 44.789C70.7391 44.9886 70.6799 47.3171 70.6799 47.8493V48.5811H70.7391C71.0945 48.1154 71.6869 47.8493 72.1608 47.8493C72.5754 47.8493 72.8716 47.9823 73.1678 48.315C73.6416 48.7806 73.5824 49.3794 73.5824 49.9781V50.6434C73.5824 51.3087 73.5824 51.9739 73.5824 52.24C73.5824 52.3731 73.7601 52.4396 73.9378 52.4396H74.1155C74.1748 52.4396 74.234 52.4396 74.234 52.5727V52.7723C74.234 52.8388 74.234 52.9053 74.1748 52.9053C74.1155 52.9053 73.7601 52.8388 73.227 52.8388C72.7531 52.8388 72.3385 52.9053 72.2792 52.9053C72.22 52.9053 72.1015 52.7723 72.1015 52.7057V52.5061C72.1015 52.4396 72.1015 52.4396 72.1608 52.4396H72.3977C72.5754 52.4396 72.7531 52.4396 72.8123 52.24C72.8123 52.107 72.8123 51.4417 72.8123 51.1091V50.1777C72.8123 49.5124 72.7531 49.1133 72.4569 48.7806C72.2792 48.5811 72.1015 48.448 71.8053 48.448C71.5092 48.448 71.213 48.5811 70.9168 48.9137C70.7984 49.0468 70.7391 49.2463 70.7391 49.4459V51.9074C70.7391 52.24 70.7984 52.3731 70.9761 52.3731H71.2722C71.3315 52.3731 71.3907 52.3731 71.3907 52.4396V52.6392C71.3907 52.7057 71.3907 52.7723 71.3315 52.7723C71.2722 52.7723 70.8576 52.7057 70.3837 52.7057C69.8506 52.7057 69.4952 52.7723 69.3767 52.7723C69.3175 52.7723 69.3175 52.7057 69.3175 52.6392V52.4396C69.3175 52.3731 69.3767 52.3731 69.4952 52.3731H69.7321C69.9098 52.3731 70.0283 52.3066 70.0875 52.1735C70.1468 51.9739 70.1468 50.7099 70.1468 49.9781V46.4522H69.9098V46.4522ZM76.5442 49.3794C76.7219 49.3794 76.8403 49.3129 76.8403 49.2463C76.8403 48.9802 76.7219 48.2484 76.0703 48.2484C75.5964 48.2484 75.1818 48.5811 75.004 49.4459L76.5442 49.3794ZM74.9448 49.712C74.9448 49.8451 74.8856 49.9781 74.8856 50.2442C74.8856 51.3752 75.5372 52.24 76.3072 52.24C76.8996 52.24 77.3735 51.8409 77.5512 51.4417C77.5512 51.3752 77.6104 51.3752 77.6696 51.3752L77.7881 51.4417C77.8473 51.4417 77.8473 51.5082 77.7881 51.6413C77.6104 52.107 77.0773 52.9053 76.1888 52.9053C75.5964 52.9053 74.9448 52.7057 74.5894 52.107C74.234 51.5082 74.1155 51.1091 74.1155 50.3108C74.1155 49.8451 74.234 49.1133 74.7671 48.5145C75.1818 47.9158 75.7741 47.9158 76.248 47.9158C77.4327 47.9158 77.7289 49.1798 77.7289 49.579C77.7289 49.712 77.6104 49.7785 77.4327 49.7785L74.9448 49.712ZM78.7359 49.712C78.7359 49.1133 78.6766 49.0468 78.3805 48.8472L78.2027 48.7141C78.1435 48.7141 78.1435 48.6476 78.1435 48.6476V48.5811C78.1435 48.5145 78.1435 48.5145 78.2027 48.448L79.2097 47.8493C79.269 47.7827 79.3282 47.7827 79.3282 47.7827C79.3874 47.7827 79.3874 47.8493 79.3874 47.9158L79.4467 48.7141H79.5059C79.8021 48.1819 80.276 47.7162 80.7499 47.7162C81.1053 47.7162 81.283 47.9823 81.283 48.2484C81.283 48.5811 81.046 48.7806 80.8683 48.7806C80.7499 48.7806 80.6314 48.7141 80.5722 48.7141C80.5129 48.5811 80.3944 48.5811 80.2167 48.5811C80.039 48.5811 79.8021 48.7141 79.6244 49.0468C79.5652 49.1798 79.5059 49.3794 79.5059 49.3794V51.7743C79.5059 52.107 79.5652 52.24 79.8021 52.24H80.276C80.3352 52.24 80.3352 52.3066 80.3352 52.3731V52.5727C80.3352 52.6392 80.3352 52.7057 80.276 52.7057C80.2167 52.7057 79.7429 52.6392 79.2097 52.6392C78.5582 52.6392 78.1435 52.7057 78.0843 52.7057C78.025 52.7057 78.025 52.7057 78.025 52.5727V52.3731C78.025 52.3066 78.025 52.24 78.1435 52.24H78.5582C78.7359 52.24 78.7951 52.1735 78.7951 52.0405C78.7951 51.6413 78.7951 51.2421 78.7951 50.6434L78.7359 49.712ZM85.4294 52.107C85.4294 52.3066 85.5479 52.3731 85.6664 52.3731H85.9625C86.081 52.3731 86.081 52.4396 86.081 52.5061V52.7057C86.081 52.7723 86.081 52.8388 86.0218 52.8388C85.9625 52.8388 85.6071 52.7723 85.074 52.7723C84.5409 52.7723 84.2447 52.8388 84.1855 52.8388C84.1263 52.8388 84.1263 52.7723 84.1263 52.7057V52.5061C84.1263 52.4396 84.1855 52.3731 84.2447 52.3731H84.5409C84.6594 52.3731 84.7186 52.3066 84.7186 52.107C84.7186 51.8409 84.7186 51.4417 84.7186 51.1756V49.6455C84.7186 49.1798 84.7186 48.8472 84.4224 48.6476C84.1855 48.448 83.9486 48.448 83.6524 48.448C83.4747 48.448 83.1193 48.5145 82.8231 48.9137C82.6454 49.1798 82.5861 49.4459 82.5861 49.712V52.107C82.5861 52.4396 82.6454 52.5061 82.8231 52.5061H83.06C83.1193 52.5061 83.1785 52.5727 83.1785 52.6392V52.8388C83.1785 52.9053 83.1785 52.9718 83.1193 52.9718C83.06 52.9718 82.7639 52.9053 82.2307 52.9053C81.6976 52.9053 81.4014 52.9718 81.3422 52.9718C81.283 52.9718 81.283 52.9053 81.283 52.8388V52.6392C81.283 52.5727 81.283 52.5061 81.4014 52.5061H81.6976C81.8161 52.5061 81.8753 52.4396 81.8753 52.3066V49.6455C81.8753 49.3129 81.6976 49.1133 81.4607 48.9802L81.4014 48.9137C81.3422 48.8472 81.3422 48.8472 81.3422 48.7806V48.7141C81.3422 48.6476 81.4014 48.6476 81.4607 48.5811L82.3492 48.0489C82.4084 47.9823 82.4677 47.9823 82.5269 47.9823C82.5861 47.9823 82.5861 48.0489 82.5861 48.1154L82.6454 48.7806C82.9416 48.3815 83.5339 47.9158 84.067 47.9158C84.3632 47.9158 84.6594 47.9823 84.9556 48.1819C85.2517 48.3815 85.4887 48.9802 85.4887 49.2463L85.4294 52.107ZM89.4574 51.8409C88.7466 51.0426 88.3912 49.712 88.3912 48.6476C88.3912 47.5832 88.6874 46.5187 89.4574 45.5874C89.9905 44.9886 90.8791 44.4564 92.0045 44.4564C92.9523 44.4564 93.7223 44.8556 94.0778 45.0552C94.1962 45.1217 94.2555 45.1217 94.2555 45.0552L94.3147 44.7225C94.3147 44.656 94.3739 44.656 94.4332 44.656C94.5516 44.656 94.5516 44.656 94.5516 44.8556C94.5516 45.0552 94.7293 46.7848 94.7886 47.051C94.7886 47.1175 94.7886 47.184 94.7294 47.184L94.5516 47.2505C94.4924 47.2505 94.4924 47.2505 94.4332 47.184C94.3147 46.7848 94.0778 46.2526 93.6631 45.7869C93.2485 45.3213 92.7154 44.9221 91.8861 44.9221C90.0498 44.9221 89.3389 46.7183 89.3389 48.3815C89.3389 49.0468 89.5167 50.3108 90.2867 51.3087C90.9975 52.1735 91.5306 52.24 92.2415 52.24C93.3669 52.24 94.3147 51.5082 94.7294 50.7764C94.7886 50.7099 94.7886 50.7099 94.7886 50.7099L94.9071 50.843C94.9663 50.843 94.9663 50.9095 94.9071 50.976C94.3147 51.9739 93.3077 52.9053 91.8861 52.9053C90.8791 52.8388 90.0498 52.4396 89.4574 51.8409ZM97.6319 50.2442C97.2765 50.5769 96.2695 50.7764 96.2695 51.7078C96.2695 52.107 96.5064 52.3066 96.8026 52.3066C97.0988 52.3066 97.6319 51.9074 97.6319 51.5748V50.2442ZM98.3427 51.3752C98.3427 52.0405 98.4612 52.24 98.6389 52.24C98.8166 52.24 98.935 52.1735 98.9943 52.0405C99.0535 51.9739 99.0535 51.9739 99.1127 51.9739L99.2312 52.0405C99.2905 52.107 99.2905 52.107 99.2312 52.24C99.172 52.4396 98.935 52.7723 98.4612 52.7723C98.1058 52.7723 97.8096 52.5061 97.7503 51.9739C97.5134 52.24 97.2172 52.5061 96.7433 52.6392C96.5656 52.7057 96.3879 52.7057 96.151 52.7057C95.914 52.7057 95.5586 52.5061 95.5586 51.7743C95.5586 51.2421 95.7956 50.7764 96.5656 50.3773C97.0395 50.1777 97.5726 49.8451 97.6911 49.712V48.9802C97.6911 48.7806 97.6319 48.5145 97.5726 48.315C97.4542 48.1819 97.2765 48.0489 96.9803 48.0489C96.8026 48.0489 96.4472 48.1154 96.3287 48.315C96.2102 48.448 96.2695 48.6476 96.2695 48.8472C96.2695 49.2463 96.151 49.5124 95.7363 49.5124C95.5586 49.5124 95.4994 49.3794 95.4994 49.1798C95.4994 48.8472 95.7956 48.3815 96.2102 48.1154C96.6249 47.8493 96.9803 47.7162 97.4542 47.7162C97.928 47.7162 98.1058 47.8493 98.2835 48.0489C98.5204 48.315 98.5204 48.5811 98.5204 48.8472V50.5769V51.3752H98.3427ZM101.008 49.3794C101.008 49.9781 101.008 51.7078 101.008 52.0405C101.008 52.24 101.068 52.3731 101.245 52.3731H101.719C101.838 52.3731 101.838 52.4396 101.838 52.5061V52.7057C101.838 52.7723 101.838 52.8388 101.778 52.8388C101.719 52.8388 101.245 52.7723 100.653 52.7723C100.001 52.7723 99.5866 52.8388 99.5274 52.8388C99.4682 52.8388 99.4682 52.7723 99.4682 52.7057V52.5061C99.4682 52.4396 99.4682 52.3731 99.5866 52.3731H100.061C100.179 52.3731 100.297 52.3066 100.297 52.107C100.297 51.7743 100.297 49.7785 100.297 49.1133V48.3815C100.297 47.5832 100.297 46.5187 100.238 46.2526C100.238 45.8535 100.061 45.6539 99.7051 45.5874L99.5274 45.5208C99.4682 45.5208 99.4682 45.4543 99.4682 45.4543V45.3878C99.4682 45.2547 99.4682 45.2547 99.5274 45.2547C99.8828 45.0551 100.357 44.8556 100.712 44.5895C100.89 44.5895 100.949 44.5895 101.008 44.5895C101.068 44.5895 101.127 44.656 101.068 44.789C101.068 45.3878 101.008 47.7827 101.008 48.448V49.3794ZM102.43 45.92C102.43 45.6539 102.667 45.3213 103.022 45.3213C103.378 45.3213 103.555 45.6539 103.555 45.8535C103.555 46.1196 103.378 46.4522 102.963 46.4522C102.785 46.4522 102.43 46.2526 102.43 45.92ZM102.963 49.3794C102.963 48.9802 102.904 48.7806 102.371 48.7141C102.311 48.7141 102.252 48.6476 102.252 48.6476V48.5811C102.252 48.5145 102.252 48.5145 102.311 48.5145C102.608 48.3815 103.022 48.1819 103.437 47.9823C103.496 47.9158 103.555 47.9158 103.615 47.9158C103.674 47.9158 103.674 47.9823 103.674 48.0489C103.674 48.2484 103.674 48.9802 103.674 49.9116V51.1756C103.674 51.6413 103.674 52.0405 103.674 52.1735C103.674 52.3731 103.733 52.4396 103.852 52.4396H104.325C104.385 52.4396 104.444 52.5061 104.444 52.5727V52.7723C104.444 52.8388 104.444 52.9053 104.325 52.9053C104.266 52.9053 103.792 52.8388 103.378 52.8388C102.785 52.8388 102.371 52.9053 102.252 52.9053C102.193 52.9053 102.193 52.9053 102.193 52.8388V52.6392C102.193 52.5727 102.252 52.5727 102.311 52.5727H102.785C102.904 52.5727 102.963 52.5061 102.963 52.3731C102.963 52.0405 102.963 51.7078 102.963 51.3087V49.3794V49.3794ZM105.451 48.448H104.74C104.681 48.448 104.681 48.448 104.681 48.315L104.74 47.9823C104.74 47.9158 104.799 47.9158 104.859 47.9158H105.451V47.7162C105.451 46.5853 105.747 45.8535 106.162 45.3213C106.695 44.656 107.287 44.3899 107.82 44.3899C108.294 44.3899 108.768 44.5895 108.768 45.0552C108.768 45.3213 108.531 45.5208 108.353 45.5208C108.235 45.5208 108.176 45.5208 108.057 45.4543C107.998 45.3878 107.88 45.2547 107.82 45.2547C107.702 45.0551 107.524 44.9886 107.346 44.9886C107.109 44.9886 106.813 45.0552 106.576 45.3878C106.221 45.92 106.221 46.9179 106.221 47.7162V47.9158H107.465C107.524 47.9158 107.524 47.9823 107.524 48.0489L107.465 48.448C107.465 48.5145 107.406 48.5145 107.346 48.5145H106.221V49.5124C106.221 50.843 106.221 51.9074 106.221 52.0405C106.221 52.24 106.28 52.3066 106.458 52.3066H107.05C107.169 52.3066 107.169 52.3066 107.169 52.3731V52.5727C107.169 52.6392 107.169 52.7057 107.109 52.7057C107.05 52.7057 106.695 52.6392 105.866 52.6392C105.332 52.6392 104.799 52.7057 104.681 52.7057C104.622 52.7057 104.622 52.7057 104.622 52.6392V52.4396C104.622 52.3731 104.622 52.3731 104.74 52.3731H105.214C105.392 52.3731 105.451 52.24 105.451 51.9739V49.8451V48.448V48.448Z" fill="#231F20"/>
<path d="M110.842 50.2442C110.842 48.9802 110.012 48.1819 109.479 48.1819C109.183 48.1819 108.946 48.2484 108.709 48.5145C108.294 48.9802 108.176 49.4459 108.176 50.3107C108.176 50.976 108.235 51.3752 108.591 51.9074C108.828 52.3065 109.124 52.5061 109.598 52.5061C110.368 52.5061 110.842 51.4417 110.842 50.2442ZM107.88 52.0404C107.406 51.4417 107.347 50.976 107.347 50.1777C107.347 49.5789 107.643 48.8471 108.235 48.3149C108.768 47.8492 109.242 47.7827 109.598 47.7827C110.131 47.7827 110.723 48.1153 111.019 48.448C111.493 48.9802 111.73 49.5789 111.73 50.3107C111.73 51.5747 110.723 52.8387 109.479 52.8387C108.946 52.8387 108.354 52.7057 107.88 52.0404Z" fill="#231F20"/>
<path d="M112.441 49.7121C112.441 49.1133 112.382 49.0468 112.086 48.8472L111.908 48.7142C111.849 48.7142 111.849 48.6476 111.849 48.6476V48.5811C111.849 48.5146 111.849 48.5146 111.908 48.448L112.915 47.8493C112.974 47.7828 113.034 47.7828 113.034 47.7828C113.093 47.7828 113.093 47.8493 113.093 47.9158L113.152 48.7142H113.211C113.508 48.1819 113.981 47.7163 114.455 47.7163C114.811 47.7163 114.988 47.9824 114.988 48.2485C114.988 48.5811 114.751 48.7807 114.574 48.7807C114.455 48.7807 114.337 48.7142 114.278 48.7142C114.218 48.5811 114.041 48.5811 113.922 48.5811C113.744 48.5811 113.508 48.7142 113.33 49.0468C113.271 49.1798 113.211 49.3794 113.211 49.3794V51.7744C113.211 52.107 113.271 52.2401 113.508 52.2401H113.981C114.041 52.2401 114.041 52.3066 114.041 52.3731V52.5727C114.041 52.6392 114.041 52.7058 113.981 52.7058C113.922 52.7058 113.448 52.6392 112.915 52.6392C112.264 52.6392 111.849 52.7058 111.79 52.7058C111.73 52.7058 111.73 52.7058 111.73 52.5727V52.3731C111.73 52.3066 111.73 52.2401 111.849 52.2401H112.264C112.441 52.2401 112.501 52.1735 112.501 52.0405C112.501 51.6413 112.501 51.2422 112.501 50.6434L112.441 49.7121ZM119.313 52.107C119.313 52.3066 119.431 52.3731 119.55 52.3731H119.905C120.023 52.3731 120.023 52.4397 120.023 52.5062V52.7058C120.023 52.7723 120.023 52.8388 119.964 52.8388C119.905 52.8388 119.55 52.7723 119.016 52.7723C118.483 52.7723 118.187 52.8388 118.128 52.8388C118.069 52.8388 118.069 52.7723 118.069 52.7058V52.5062C118.069 52.4397 118.128 52.3731 118.187 52.3731H118.483C118.602 52.3731 118.661 52.3066 118.661 52.107C118.661 51.8409 118.661 51.4418 118.661 51.1756V49.6455C118.661 49.1798 118.661 48.8472 118.365 48.6476C118.128 48.448 117.891 48.448 117.595 48.448C117.417 48.448 117.062 48.5146 116.765 48.9137C116.588 49.1798 116.529 49.4459 116.529 49.7121V52.107C116.529 52.4397 116.588 52.5062 116.765 52.5062H117.002C117.062 52.5062 117.121 52.5727 117.121 52.6392V52.8388C117.121 52.9053 117.121 52.9719 117.062 52.9719C117.002 52.9719 116.706 52.9053 116.173 52.9053C115.64 52.9053 115.344 52.9719 115.285 52.9719C115.225 52.9719 115.225 52.9053 115.225 52.8388V52.6392C115.225 52.5727 115.225 52.5062 115.344 52.5062H115.64C115.758 52.5062 115.818 52.4397 115.818 52.3066V49.6455C115.818 49.3129 115.64 49.1133 115.403 48.9803L115.344 48.9137C115.285 48.8472 115.285 48.8472 115.285 48.7807V48.7142C115.285 48.6476 115.344 48.6476 115.403 48.5811L116.292 48.0489C116.351 47.9824 116.41 47.9824 116.469 47.9824C116.529 47.9824 116.529 48.0489 116.529 48.1154L116.588 48.7807C116.884 48.3815 117.476 47.9158 118.009 47.9158C118.306 47.9158 118.602 47.9824 118.898 48.1819C119.194 48.3815 119.431 48.9803 119.431 49.2464V52.107H119.313ZM120.497 45.92C120.497 45.6539 120.734 45.3213 121.09 45.3213C121.445 45.3213 121.623 45.6539 121.623 45.8535C121.623 46.1196 121.445 46.4522 121.03 46.4522C120.793 46.4522 120.497 46.2527 120.497 45.92ZM120.853 49.3794C120.853 48.9803 120.793 48.7807 120.26 48.7142C120.201 48.7142 120.142 48.6476 120.142 48.6476V48.5811C120.142 48.5146 120.142 48.5146 120.201 48.5146C120.497 48.3815 120.912 48.1819 121.327 47.9824C121.386 47.9158 121.445 47.9158 121.504 47.9158C121.564 47.9158 121.564 47.9824 121.564 48.0489C121.564 48.2485 121.564 48.9803 121.564 49.9116V51.1756C121.564 51.6413 121.564 52.0405 121.564 52.1735C121.564 52.3731 121.623 52.4397 121.741 52.4397H122.215C122.274 52.4397 122.334 52.5062 122.334 52.5727V52.7723C122.334 52.8388 122.334 52.9053 122.215 52.9053C122.156 52.9053 121.682 52.8388 121.267 52.8388C120.675 52.8388 120.26 52.9053 120.142 52.9053C120.083 52.9053 120.083 52.9053 120.083 52.8388V52.6392C120.083 52.5727 120.083 52.5727 120.201 52.5727H120.675C120.793 52.5727 120.853 52.5062 120.853 52.3731C120.853 52.0405 120.853 51.7079 120.853 51.3087V49.3794V49.3794ZM124.703 50.2443C124.348 50.5769 123.341 50.7765 123.341 51.7079C123.341 52.107 123.578 52.3066 123.874 52.3066C124.17 52.3066 124.703 51.9074 124.703 51.5748V50.2443V50.2443ZM125.473 51.3752C125.473 52.0405 125.591 52.2401 125.769 52.2401C125.947 52.2401 126.065 52.1735 126.125 52.0405C126.184 51.974 126.184 51.974 126.243 51.974L126.362 52.0405C126.421 52.107 126.421 52.107 126.362 52.2401C126.302 52.4397 126.065 52.7723 125.591 52.7723C125.236 52.7723 124.94 52.5062 124.881 51.974C124.644 52.2401 124.348 52.5062 123.874 52.6392C123.696 52.7058 123.518 52.7058 123.281 52.7058C123.044 52.7058 122.689 52.5062 122.689 51.7744C122.689 51.2422 122.926 50.7765 123.696 50.3773C124.17 50.1777 124.703 49.8451 124.821 49.7121V48.9803C124.821 48.7807 124.762 48.5146 124.703 48.315C124.584 48.1819 124.407 48.0489 124.111 48.0489C123.933 48.0489 123.577 48.1154 123.459 48.315C123.341 48.448 123.4 48.6476 123.4 48.8472C123.4 49.2464 123.281 49.5125 122.867 49.5125C122.689 49.5125 122.63 49.3794 122.63 49.1798C122.63 48.8472 122.926 48.3815 123.341 48.1154C123.755 47.8493 124.111 47.7163 124.584 47.7163C125.058 47.7163 125.236 47.8493 125.414 48.0489C125.651 48.315 125.651 48.5811 125.651 48.8472V50.5769V51.3752H125.473Z" fill="#231F20"/>
</svg>
